<?xml version="1.0" encoding="UTF-8" standalone="no"?>
<!-- Created with Inkscape (http://www.inkscape.org/) -->

<svg
   width="661.41699"
   height="234.33099"
   viewBox="0 0 174.99991 62.000076"
   version="1.1"
   id="svg1"
   xml:space="preserve"
   inkscape:version="1.3 (0e150ed6c4, 2023-07-21)"
   sodipodi:docname="Corpos Femininos - Medidas.svg"
   inkscape:export-filename="Corpos Femininos - Medidas.png"
   inkscape:export-xdpi="96"
   inkscape:export-ydpi="96"
   xmlns:inkscape="http://www.inkscape.org/namespaces/inkscape"
   xmlns:sodipodi="http://sodipodi.sourceforge.net/DTD/sodipodi-0.dtd"
   xmlns="http://www.w3.org/2000/svg"
   xmlns:svg="http://www.w3.org/2000/svg"><sodipodi:namedview
     id="namedview1"
     pagecolor="#505050"
     bordercolor="#eeeeee"
     borderopacity="1"
     inkscape:showpageshadow="0"
     inkscape:pageopacity="0"
     inkscape:pagecheckerboard="0"
     inkscape:deskcolor="#505050"
     inkscape:document-units="mm"
     inkscape:zoom="0.62016871"
     inkscape:cx="386.99147"
     inkscape:cy="239.45097"
     inkscape:window-width="1600"
     inkscape:window-height="837"
     inkscape:window-x="-8"
     inkscape:window-y="-8"
     inkscape:window-maximized="1"
     inkscape:current-layer="layer1"
     showguides="true"
     showgrid="false" /><defs
     id="defs1" /><g
     inkscape:label="Camada 1"
     inkscape:groupmode="layer"
     id="layer1"><g
       id="g4"
       transform="translate(-19.011027,-27.480775)"><g
         id="g3-6-4-0-8"
         style="fill:#ffffff;stroke:#b3b3b3"
         transform="translate(345.02293,-13.059955)"><path
           style="fill:#ffffff;stroke:#b3b3b3;stroke-width:0.264999;-inkscape-stroke:none"
           d="m -316.4303,46.365366 c -0.10544,-3.81664 7.30015,-5.2205 8.13738,0.11582 0.2702,2.697992 -2.29632,11.949449 -5.8637,7.352586 -1.9704,-2.18418 -2.43461,-4.860716 -2.27368,-7.468406 z m -0.86382,20.627286 c -0.5197,-1.04025 -0.30502,-2.911192 0.4894,-3.842778 m 12.82342,26.72517 c -0.0592,-0.86637 0.25386,-1.679552 0.44141,-2.510668 0.13677,0.833228 0.53633,1.613898 0.33053,2.51564 -0.25731,0.147191 -0.51463,0.193902 -0.77194,-0.005 z m -10.15131,-35.935367 c 0.0692,1.78395 0.31218,2.92727 -1.87118,3.97641 -2.10176,0.142682 -5.06665,0.848594 -4.72643,4.528698 -0.13937,2.697709 0.44249,4.305472 0.10092,7.695621 -1.67157,4.72849 -1.47595,10.093427 -1.89842,14.283144 l -1.47689,4.31485 c -0.12263,0.57066 -0.017,1.52784 0.14479,2.63523 0.41102,0.4399 1.86167,0.768124 2.66626,1.257224 0.37375,-0.19004 0.19615,-0.45401 -0.029,-0.75293 l -1.97124,-1.025544 0.78187,-2.3167 c -0.11534,0.907373 0.30758,1.773793 0.13491,2.681166 l 0.64266,0.384941 c 0.38579,-1.142667 -0.0397,-2.184305 0.29396,-3.066097 0.22334,-0.821831 0.15072,-1.347696 0.17373,-1.9692 l -0.11583,-1.79543 c -1.36817,-5.74293 3.18269,-9.381607 3.62309,-13.158727 0.45393,-1.96041 0.37878,-2.951537 0.38648,-4.633887 0.84787,1.657664 3.34822,3.537836 -0.78224,6.95555 -0.82758,2.07009 -3.3409,4.654871 -3.39675,6.879311 -0.74355,6.427142 2.37778,13.972139 5.90827,19.293493 l 5.06025,-0.046 c -0.0144,-5.573666 -0.25554,-9.397919 -1.63407,-14.336449 m -0.0409,0.04095 c 0.45037,0.283115 0.98265,0.05496 1.43303,-0.533809 0.0873,4.770755 0.0615,10.179866 0.43988,14.853588 l 3.22007,-0.10611 c -0.24122,0.52564 1.46164,-2.920626 2.34482,-8.694217 0.45079,-2.946923 1.00567,-7.035038 1.34031,-10.098739 0.45517,-2.696369 -1.80744,-5.369587 -3.03313,-7.425414 -4.42895,-4.068825 0.17888,-6.804337 -0.002,-10.653886 l 0.98957,6.686198 c -0.0995,2.03675 0.18715,4.237325 0.66192,6.274085 1.9266,3.65856 1.15988,6.921771 0.89396,9.300205 l -0.21265,1.696567 -0.42941,3.441107 c -0.0927,0.0772 -0.11649,0.0097 0.11583,0.08688 0.77384,0.159008 1.13615,-0.02252 1.69409,-0.04342 0.17132,-0.09956 0.12875,-0.359535 0.15927,-0.564696 h 0.28958 c 0.16621,-0.08477 0.15475,-0.347202 0.17376,-0.57917 h 0.23167 c 0.25467,-0.412404 0.20617,-0.885444 0.28958,-1.3321 0.25135,-0.52581 -0.42171,-1.578421 -0.77194,-2.555401 0.0473,-2.95034 0.63565,-7.425469 0.40745,-10.789079 0.22092,-1.29349 -0.13376,-2.58697 -0.20476,-3.88046 -0.42219,-3.96196 -0.47935,-6.252931 -1.07147,-11.246751 -0.39327,-1.061825 -1.4201,-2.284847 -3.01375,-2.505347 -2.49823,-0.04551 -4.69254,0.01894 -4.53367,-2.727074 -1.16594,1.354864 -2.30058,0.947818 -3.42705,-0.469575"
           id="path5-5-0-5-6-7"
           sodipodi:nodetypes="cccccccccccccccccccccccccccccccccccccsccccccccccccccccccccccc" /></g><g
         id="g3-6-4-5-1"
         style="fill:#ffffff;stroke:#b3b3b3"
         transform="translate(420.28917,-13.96188)"><path
           style="fill:#ffffff;stroke:#b3b3b3;stroke-width:0.264999;-inkscape-stroke:none"
           d="m -316.02076,47.593978 c 0.0409,-3.903874 7.17711,-5.230782 8.05547,0.11582 0.23169,2.636108 -2.4607,11.048433 -5.61798,7.06591 -1.9704,-2.18418 -2.59842,-4.57404 -2.43749,-7.18173 z m -1.19145,18.90723 c -0.0597,-0.99425 0.035,-1.9885 0.20271,-2.98275 m 12.90533,26.028956 0.3595,-2.633529 c 0.34488,0.686803 0.73018,1.545934 0.5353,2.556594 z m -9.53701,-34.829616 c 0.39427,1.78395 -0.004,2.59964 -2.40357,3.64878 -2.08044,0.301536 -3.96918,0.645163 -3.98927,3.955346 -0.0801,2.99407 0.77392,5.987671 0.019,9.129001 -1.77795,3.55832 -1.14856,8.248007 -1.5708,12.440227 l -1.35402,4.273896 c -0.12263,0.57066 -0.0989,1.568794 0.0629,2.676184 0.41102,0.4399 1.45213,0.686216 2.25672,1.175316 0.37375,-0.19004 0.19615,-0.45401 -0.029,-0.75293 l -1.76647,-0.98459 0.78187,-2.3167 0.13491,2.763074 0.43789,0.221126 c 0.69015,-0.8383 0.2781,-1.98939 0.49873,-2.98419 l 0.17373,-1.9692 -0.11583,-1.79543 c 1.0388,-3.76066 2.11585,-7.38965 2.72211,-11.43867 0.45393,-1.96041 0.54254,-4.63064 0.55024,-6.31299 0.69466,2.53149 1.45415,6.11243 0.40542,8.71656 -0.82758,2.07009 -1.33417,4.20438 -1.39002,6.42882 -0.15889,6.07635 1.75715,12.861993 3.77868,19.088722 l 4.65072,0.036 c 0.12703,-4.846047 -1.10749,-9.855185 -1.8798,-15.17601 0.42043,0.102333 0.82841,-0.594722 1.14636,-1.004777 0.33774,5.140881 0.79835,10.604486 1.13609,16.164107 l 2.11432,-0.0242 c 1.78395,-6.225132 3.03256,-12.958802 2.37461,-19.489172 0.33409,-2.60988 -0.8308,-4.91461 -1.47689,-7.38446 -0.50755,-1.84064 0.87792,-7.12725 0.20271,-10.36721 l 1.27625,7.341458 c -0.0995,2.03675 0.39192,4.319232 0.86669,6.355992 -0.20269,2.971146 0.23847,5.222135 0.3206,7.70301 l -0.58123,1.73752 -0.3475,3.3592 c -0.0927,0.0772 -0.11649,0.15447 0.11583,0.23167 l 1.67961,-0.0579 0.17375,-0.69501 h 0.28958 l 0.17376,-0.57917 h 0.23167 l 0.28958,-1.3321 c 0.25135,-0.52581 -0.2579,-1.45556 -0.60813,-2.43254 0.0473,-2.95034 0.43089,-5.78732 0.20269,-9.15093 0.22092,-1.29349 0.071,-2.58697 0,-3.88046 -0.42219,-3.96196 -0.47935,-6.90819 -1.07147,-11.90201 -0.50762,-1.916729 -1.06421,-2.280328 -2.80898,-2.75107 -2.76395,-0.11833 -5.30258,-0.65819 -4.08318,-2.80898 -0.98785,1.648548 -2.32962,1.742861 -3.59086,0.14473"
           id="path5-5-0-5-2-7"
           sodipodi:nodetypes="cccccccccccccccccccccccccccccccccccccccccccccccccccccccccc" /></g><g
         id="g3-6-4-7-6"
         style="fill:#ffffff;stroke:#b3b3b3"
         transform="translate(455.64653,-12.340974)"><path
           style="fill:#ffffff;stroke:#b3b3b3;stroke-width:0.264999;-inkscape-stroke:none"
           d="m -315.97981,46.40632 c -0.10544,-3.81664 6.97252,-5.2205 7.80975,0.11582 0.27021,2.61685 -2.27559,10.585699 -5.69989,7.106863 -1.7236,-2.677786 -2.21619,-4.724197 -2.10986,-7.222683 z m -0.90477,22.347343 c -0.55898,-0.861544 -2.33197,-6.145481 0.12081,-6.791446 m 12.49578,26.5204 0.31855,-2.797344 0.37426,0.828813 0.0382,1.93255 z m -9.57796,-34.829616 c 0.62535,1.505874 0.3794,2.586532 -1.83022,3.64878 -1.97099,0.10999 -4.07204,0.14945 -4.3988,3.9963 -0.0801,2.99407 0.56914,5.987671 -0.18576,9.129001 -1.77795,3.55832 -1.02569,8.166099 -1.44793,12.358319 l -1.35403,4.151035 c -0.12263,0.57066 -0.017,1.52784 0.14479,2.63523 0.41102,0.4399 1.6569,0.72717 2.46149,1.21627 0.37375,-0.19004 0.0733,-0.413056 -0.15186,-0.711976 l -1.72551,-0.779821 0.61805,-2.562423 0.21682,2.72212 0.43789,0.26208 c 0.0757,-0.991911 0.0609,-2.166546 0.49873,-3.107051 l 0.33754,-1.846339 0.62134,-4.129792 c -0.10918,-3.76066 1.67548,-4.891473 2.31257,-8.940493 0.11093,-2.193401 0.40782,-1.928313 0.46834,-2.954784 2.63988,2.637001 1.73016,5.307807 -1.68322,7.365087 -0.82758,2.07009 -1.08845,2.074786 -1.14425,4.299226 -0.97541,5.609766 2.82194,11.961009 4.84348,18.18774 l 4.69166,0.03595 c -0.16788,-4.847074 -0.90508,-9.12773 -1.92075,-14.623129 0.91324,-0.128311 1.01121,-0.528374 1.31018,-0.861439 0.27462,5.142313 1.14512,10.325579 0.64465,15.467892 l 2.36004,0.01676 c 1.16746,-6.379253 4.1291,-11.947496 3.68513,-18.424373 0.30919,-2.765174 -4.4703,-5.859501 -3.68839,-8.244488 -0.60968,-1.119816 0.25626,-2.610877 1.51326,-4.784082 l 0.41619,2.495497 c -0.0425,2.03675 0.53757,3.868741 0.58001,5.905501 0.72219,2.168911 1.65537,2.514264 0.97586,8.03064 l -0.37646,1.73752 -0.3475,3.3592 c -0.0927,0.0772 -0.11649,0.15447 0.11583,0.23167 l 1.67961,-0.0579 0.17375,-0.69501 h 0.28958 l 0.17376,-0.57917 h 0.23167 l 0.28958,-1.3321 c 0.25135,-0.52581 -0.2579,-1.45556 -0.60813,-2.43254 0.0473,-2.95034 0.43089,-5.78732 0.20269,-9.15093 0.22092,-1.29349 0.071,-2.58697 0,-3.88046 -0.42219,-3.96196 -0.47935,-6.90819 -1.07147,-11.90201 -0.66163,-2.22474 -2.3024,-2.176609 -3.87378,-2.300579 -2.43546,-0.11833 -3.60465,-1.108681 -3.01838,-3.259471 -0.88556,1.311248 -2.05028,1.736267 -3.42704,0.349499 m 7.63538,13.468961 c 0.93717,-1.333645 1.77393,-3.019724 -0.53262,-5.202862"
           id="path5-5-0-5-5-4"
           sodipodi:nodetypes="ccccccccccccccccccccccccccccccccccccccccccccccccccccccccccccc" /></g><g
         id="g3-6-4-03-1"
         style="fill:#ffffff;stroke:#b3b3b3"
         transform="translate(492.78382,-12.328987)"><path
           style="fill:#ffffff;stroke:#b3b3b3;stroke-width:0.264999;-inkscape-stroke:none"
           d="m -316.22759,46.452242 c -0.10544,-3.81664 7.09744,-5.307376 7.93467,0.02894 0.10751,2.5355 -1.99031,9.902603 -5.61798,7.06591 -1.70756,-2.259277 -2.19998,-4.566489 -2.31669,-7.094854 z m 11.95961,41.89843 0.26063,-2.808987 c 0.41221,0.812233 0.73486,1.804952 0.46333,2.693156 z m -9.61395,-34.890445 c 0.56631,1.870553 0.20887,2.230761 -2.40357,3.64878 -2.23162,0.129466 -4.11655,0.895023 -3.88046,4.025259 -0.0801,2.99407 0.49426,5.86481 -0.26064,9.00614 -1.77795,3.55832 -0.99673,8.115208 -1.41897,12.307428 l -1.47689,4.31485 c -0.12263,0.57066 -0.017,1.52784 0.14479,2.63523 0.41102,0.4399 1.6569,0.72717 2.46149,1.21627 0.37375,-0.19004 0.19615,-0.45401 -0.029,-0.75293 -0.99202,-0.0056 -1.17767,-0.656374 -1.76647,-0.98459 l 0.78187,-2.3167 c -0.01,0.907373 0.4156,1.901721 -0.0289,2.72212 l 0.58268,0.291039 c 0.30113,-0.893874 0.17682,-2.035534 0.51775,-3.013149 l 0.17373,-1.9692 -0.11583,-1.79543 c 0.011,-0.893716 -0.20202,-4.599371 2.49044,-11.264918 0.25558,-2.123321 0.16687,-4.475702 0.20277,-6.139238 1.78055,2.802962 0.84448,3.686758 -0.23165,6.284033 -0.82758,2.07009 -2.31877,6.405238 -2.37462,8.629678 -1.39123,6.350203 3.68597,12.080988 5.73382,18.30187 l 4.92263,-0.005 c -0.53019,-4.824858 -0.65692,-9.620756 -2.20054,-14.503531 0.4752,0.07078 1.02949,-0.210696 1.39002,-0.636797 0.96572,5.045173 0.81618,9.948023 0.89739,15.140615 l 2.28808,-0.05316 c 1.78395,-6.22513 4.03035,-12.229558 3.79359,-18.591452 -0.47575,-1.738851 -0.61674,-4.498427 -0.75294,-7.442377 -0.37504,-2.126427 -0.46245,-2.160968 -1.24522,-5.328404 l 0.72398,2.606291 c 0.69168,2.190498 0.44605,3.817736 0.78187,5.589014 -0.19922,2.428667 1.06581,5.435715 0.34751,8.13739 l -0.17375,1.998148 -0.55021,3.243365 c -0.0927,0.0772 -0.11645,0.06759 0.11583,0.144795 l 1.41898,-0.08686 0.17375,-0.69501 h 0.28958 l 0.17376,-0.57917 h 0.23167 l 0.28958,-1.3321 c -0.006,-0.68044 -0.37451,-1.525524 -0.60813,-2.43254 0.0473,-2.95034 0.28609,-5.729403 0.0579,-9.093013 0.22092,-1.29349 0.071,-2.58697 0,-3.88046 -0.42219,-3.96196 -0.47935,-6.90819 -1.07147,-11.90201 -0.66163,-2.22474 -1.49823,-2.6271 -3.06961,-2.75107 -2.43546,-0.11833 -4.32194,-1.063611 -3.73567,-3.214401 -0.93127,1.0827 -2.3639,1.622331 -3.67774,0.550151"
           id="path5-5-0-5-4-0"
           sodipodi:nodetypes="ccccccccccccccccccccccccccccccccccccccccccccccccccccccccc" /></g><g
         id="g3-6-4-4"
         style="fill:#ffffff;stroke:#b3b3b3"
         transform="translate(385.77687,-12.871904)"><path
           style="fill:#ffffff;stroke:#b3b3b3;stroke-width:0.264999;-inkscape-stroke:none"
           d="m -316.34342,46.973498 c -0.10544,-3.81664 6.86577,-5.336335 7.703,-1.5e-5 0.11208,2.61685 -2.41697,10.56777 -5.47318,7.06591 -1.9704,-2.18418 -2.39075,-4.458205 -2.22982,-7.065895 z m -2.1231,18.994106 c -0.0597,-0.99425 -0.10979,-1.727873 0.0579,-2.722123 m 14.19853,25.278942 0.40542,-2.664193 c 0.19384,0.792628 0.96571,2.114097 0.37646,2.693156 z m -9.87457,-34.427105 c 0.0692,1.78395 -0.74143,3.062978 -2.89587,3.388152 -1.97099,0.10999 -3.72745,0.06257 -4.05421,3.909424 -0.0801,2.99407 0.75489,5.777934 -10e-6,8.919264 -1.77795,3.55832 -1.08361,8.086249 -1.50585,12.278469 l -1.41897,4.459643 c -0.12263,0.57066 -0.16179,1.556799 0,2.664189 0.41102,0.4399 1.6569,0.72717 2.46149,1.21627 0.37375,-0.19004 0.19615,-0.45401 -0.029,-0.75293 l -1.76647,-0.98459 0.78187,-2.3167 -0.0289,2.72212 0.43789,0.26208 c 0.69015,-0.8383 0.29711,-1.98939 0.51774,-2.98419 l 0.31853,-1.9692 -0.029,-1.969182 c 0.74211,-3.871919 1.73704,-7.654779 2.66419,-11.583463 0.45393,-1.96041 0.19504,-3.732922 0.20274,-5.415272 0.69466,2.53149 2.32291,5.388464 1.27418,7.992594 -0.82758,2.07009 -1.5948,4.175421 -1.65065,6.399861 -0.15889,6.07635 1.91685,12.625355 3.93838,18.852085 l 4.40138,-0.03396 c -0.31867,-4.873167 -0.82971,-9.477848 -1.7951,-14.74968 0.52127,-0.226898 0.69503,-0.446085 1.10045,-0.882944 0.78629,5.217907 0.76799,10.487991 0.8974,15.632912 l 2.05641,0.03372 c 1.78395,-6.22513 3.52485,-12.698172 2.8669,-19.228542 -1.19133,-3.372589 -1.04823,-4.936445 -1.65065,-7.38446 -0.31828,-2.07899 1.4358,-6.416312 1.30314,-9.614285 0.48767,2.581657 0.62452,4.33243 0.49231,6.776338 -0.0995,2.03675 0.36502,4.131427 0.83979,6.168187 -0.5379,2.83706 0.26421,5.777681 0.55021,8.340101 l -0.72396,1.274181 -0.17375,2.982737 c -0.12469,0.125183 -0.17121,0.641925 0.17375,0.550216 0.42974,0.03786 1.08794,0.17547 1.59273,-0.08686 l 0.0869,-0.69501 0.3475,-0.05792 0.11586,-0.434377 c 0.24041,0.190321 0.31376,-0.120542 0.40542,-0.376464 l -0.0289,-1.12939 c 0.25135,-0.52581 -0.0552,-1.339726 -0.40542,-2.316706 0.0473,-2.95034 0.31506,-5.903154 0.0869,-9.266764 0.22092,-1.29349 -0.0159,-2.58697 -0.0869,-3.88046 -0.42219,-3.96196 -0.40908,-5.745593 -0.78188,-11.178044 0.0515,-2.099819 -1.60972,-2.755243 -3.09857,-2.837946 -2.43546,-0.11833 -5.3355,-0.54235 -4.74923,-2.693145 -0.93127,1.0827 -1.7268,1.043158 -3.04064,-0.02902"
           id="path5-5-0-5-8"
           sodipodi:nodetypes="cccccccccccccccccccccccccccccccccccccccccccccccccccccccccc" /></g><path
         style="fill:#000000;fill-opacity:1;stroke:#000000;stroke-width:0.264999;-inkscape-stroke:none"
         d="m 182.01616,71.092972 c 3.89037,-4.05473 5.02288,-3.37186 6.78754,-3.39937 -0.0374,-0.80857 -0.47187,-1.76701 -0.42987,-2.47554 0.0662,-1.11783 0.0542,-2.12866 -0.0109,-3.05435 -0.21787,-3.09716 -1.02977,-5.24116 -1.49044,-7.25004 2.06756,-2.88686 -0.11342,-5.0973 -1.05195,-5.45778 0.27135,-2.13607 0.14321,-3.1204 0.70495,-5.11128 -0.30848,-0.15141 -0.47798,-0.36729 -0.83775,-0.31357 -0.44936,1.98126 -0.48087,2.83867 -0.56572,4.92407 -2.80174,0.98606 -3.39992,3.20513 -8.35585,0.57683 -0.0943,-1.74664 -0.12099,-2.59946 -0.51483,-4.49587 -0.30191,-0.0267 -0.24001,-0.0348 -0.73887,0.28314 0.46467,1.58522 0.48611,2.63598 0.64702,4.2212 -2.84929,2.36741 -1.17554,4.72311 -0.99368,6.31246 0.34293,2.99698 -2.93096,8.13693 -3.31953,11.84319 5.92745,-1.47931 7.7726,3.30665 8.46399,3.94926 0.49828,0.46312 1.12113,0.23921 1.72989,-0.5933"
         id="path3-2-1-4-5-2"
         sodipodi:nodetypes="ccsscccccccccscsc" /><g
         id="g3-1-5-5"
         style="fill:#000000;stroke:#000000"
         transform="translate(6.1664005,-84.026335)"><path
           style="fill:#000000;stroke:#000000;stroke-width:0.264999;-inkscape-stroke:none"
           d="m 35.45413,152.35356 c 0.200627,-2.65675 -0.911703,-5.16565 -2.837949,-7.54973 -1.373477,-2.11451 -1.828842,-4.26072 -0.827805,-6.44227 1.234784,-2.09794 0.564361,-2.68972 0.422384,-3.61486 0.27135,-2.13607 0.307022,-4.38997 0.86876,-6.38085 -0.308479,-0.15141 -0.600842,-0.36729 -0.960605,-0.31357 -0.449361,1.98126 -0.562773,3.94442 -0.647629,6.02982 -2.906765,0.80611 -3.756683,2.49072 -8.683482,0.12634 -0.0943,-1.74664 -0.161941,-3.33662 -0.555786,-5.23303 -0.301909,-0.0267 -0.321915,-0.0348 -0.820779,0.28314 0.464678,1.58522 0.445156,3.37314 0.606074,4.95836 -1.624759,1.98781 -0.772452,3.56256 0.05792,5.33688 0.75287,1.60423 0.32589,3.05751 -1.042512,5.09672 -1.559766,2.24386 -3.728359,3.92088 -3.822543,7.52925 9.601316,-1.19993 8.460939,7.86166 11.179711,3.68968 3.9412,-3.92653 5.091378,-3.49217 7.064241,-3.51588 z"
           id="path3-9-9-5"
           sodipodi:nodetypes="cccccccccccccccc" /></g><g
         id="g5-2-6-9"
         transform="translate(-0.39482494,-95.741189)"
         style="fill:#000000;stroke:#000000"><g
           id="g3-6-8-0-9"
           style="fill:#000000;stroke:#000000"
           transform="translate(116.42301,12.30446)"><path
             style="fill:#000000;fill-opacity:1;stroke:#000000;stroke-width:0.264999;stroke-opacity:1;-inkscape-stroke:none"
             d="m 28.652111,154.54086 c 3.890372,-4.05473 5.104794,-3.57663 6.869448,-3.60414 -0.313428,-3.06735 -1.430557,-4.32944 -3.151101,-6.66529 -1.373477,-2.11451 0.136937,-3.72832 1.137974,-5.90987 2.067557,-2.88686 -0.113426,-5.0973 -1.05195,-5.45778 0.27135,-2.13607 0.143207,-3.1204 0.704945,-5.11128 -0.308479,-0.15141 -0.477981,-0.20348 -0.837744,-0.14976 -0.449361,1.98126 -0.521819,3.1663 -0.606675,5.2517 -2.700483,0.8038 -2.912783,2.22998 -8.273945,0.33111 -0.0943,-1.74664 -0.161941,-2.84518 -0.555786,-4.74159 -0.301909,-0.0267 -0.240007,-0.0348 -0.738871,0.28314 0.464678,1.58522 0.48611,2.63598 0.647028,4.2212 -2.705239,1.79713 -1.414072,5.31152 0.180781,7.22075 3.713533,4.61768 -3.21361,5.5796 -3.224422,11.18062 6.270374,-1.65077 6.856829,2.69198 7.440133,3.41686 0.391596,0.48664 0.851993,0.52589 1.484176,-0.30662"
             id="path3-2-1-8-3"
             sodipodi:nodetypes="ccccccccccccccsc" /></g></g><path
         style="fill:#000000;fill-opacity:1;stroke:#000000;stroke-width:0.264999;-inkscape-stroke:none"
         d="m 80.035585,53.138682 c 0.517833,-3.28032 -0.05015,-3.62383 -0.752925,-3.88046 0.193081,-1.88943 0.418635,-3.5466 0.839802,-5.58902 -0.396545,-0.38883 -0.652973,-0.28726 -0.897719,-0.1448 -0.332243,2.22421 -0.386679,3.88103 -0.579173,5.96549 -3.017367,1.75737 -5.315629,2.28107 -10.048655,0.11583 -0.05555,-1.69733 -0.08152,-3.22048 -0.579173,-5.21255 -0.497224,-0.309 -0.568491,-0.10685 -0.695008,0.029 0.154446,1.51677 0.395769,3.40208 0.550215,5.06777 -0.690956,0.43372 -0.943448,1.39172 -0.405421,3.82254 0.339903,3.27062 2.683681,4.92129 -0.0858,10.3163 -0.544779,1.21393 -0.463051,2.42785 -0.493375,3.64178 4.412631,-0.15649 5.703956,2.22006 6.644699,4.40332 0.849454,-0.001 1.397234,-2.00577 2.246688,-3.12213 1.070334,-0.97912 2.2168,-1.86867 4.575468,-1.3321 -0.318373,-2.35387 -0.521251,-4.7907 -1.50585,-6.77632 0.311625,-2.60245 0.720399,-5.0106 1.186227,-7.30465 z"
         id="path5-2-2-9"
         sodipodi:nodetypes="ccccccccccccccccc" /><path
         style="fill:#000000;stroke:#000000;stroke-width:0.264999;-inkscape-stroke:none"
         d="m 103.67112,55.529302 c -0.45937,-1.02263 -0.79478,-4.93125 -0.42293,-5.86717 l 0.38559,0.0607 c -0.0134,-1.71271 -0.27889,-3.81196 -0.52126,-5.29943 0.23036,-0.22286 0.47502,-0.33126 0.78188,0.0579 0.4977,1.99207 0.3788,3.66002 0.4344,5.35735 5.13256,1.81533 5.47059,1.35608 8.36901,0.029 0.19249,-2.08446 0.44963,-4.08878 0.78186,-6.31299 0.16056,-0.3441 0.40903,-0.2926 0.72396,0.058 -0.18981,1.94988 -0.40842,4.05159 -0.75292,6.00147 l 0.62535,-0.062 c 0.45255,2.44998 0.72996,4.86563 0.0904,7.53403 -0.0313,1.29623 -0.26543,2.93635 0.46246,5.10019 0.63929,1.56471 0.98428,3.12662 0.86003,4.90948 -3.67064,-0.48437 -3.41966,3.22871 -6.7164,4.46396 -0.2412,0.15182 -0.40675,0.11311 -0.53238,-0.15885 -1.60358,-3.71001 -4.17685,-4.12078 -6.63448,-4.13633 0.4154,-2.13921 0.62246,-4.29925 1.76598,-6.36564 0.53729,-1.1799 0.76968,-3.95583 0.29943,-5.36967 z"
         id="path5-5-2-0-4"
         sodipodi:nodetypes="cccccccccccccccccccc" /><ellipse
         style="fill:#b3b3b3;fill-opacity:0.677725;stroke:none;stroke-width:0.480954;stroke-dasharray:none;stroke-dashoffset:0;stroke-opacity:1"
         id="path2"
         cx="180.69478"
         cy="58.125088"
         rx="10.359777"
         ry="15.333606" /><rect
         style="fill:#b3b3b3;fill-opacity:0.677725;stroke:none;stroke-width:0.46141;stroke-dasharray:none;stroke-dashoffset:0;stroke-opacity:1"
         id="rect2"
         width="17.044571"
         height="28.809851"
         x="99.773666"
         y="45.324295"
         transform="rotate(-0.73824639)" /><path
         style="fill:#b3b3b3;fill-opacity:0.677725;stroke:none;stroke-width:0.537032;stroke-dasharray:none;stroke-dashoffset:0;stroke-opacity:1"
         d="m 135.20088,72.155622 17.01554,-0.0372 c -0.0654,-6.34844 -1.33742,-10.33902 -4.22408,-12.07716 l -0.11566,10e-4 c 2.5457,-4.98111 3.44096,-9.96221 4.31938,-14.94332 l -16.66746,0.0869 c 0.63556,5.37651 1.97295,10.33193 4.03061,14.85518 v -0.11566 c -4.87885,5.19934 -3.75863,8.63181 -4.35833,12.23022 z"
         id="path3"
         sodipodi:nodetypes="ccccccccc" /><path
         style="fill:#b3b3b3;fill-opacity:0.677725;stroke:none;stroke-width:0.613619;stroke-dasharray:none;stroke-dashoffset:0;stroke-opacity:1"
         d="m 61.744277,44.491342 22.823691,-0.37234 -10.491534,30.34594 z"
         id="path4"
         sodipodi:nodetypes="cccc" /><path
         style="fill:#b3b3b3;fill-opacity:0.677725;stroke:none;stroke-width:0.618646;stroke-dasharray:none;stroke-dashoffset:0;stroke-opacity:1"
         d="m 44.1351,73.193262 -22.708744,0.007 10.907728,-30.82993 z"
         id="path4-2"
         sodipodi:nodetypes="cccc" /><path
         style="fill:none;stroke:#000000;stroke-width:0.5;stroke-linecap:butt;stroke-linejoin:bevel;stroke-dasharray:1, 0.5;stroke-dashoffset:0;stroke-opacity:1"
         d="m 100.2173,46.887412 c -2.317413,0.23069 -4.545052,0.362 0.44452,1.49191 2.85473,0.75845 6.5203,1.03924 8.6964,0.99689 2.7721,-5.2e-4 3.38134,-0.0905 7.11685,-0.71386 6.78717,-2.44015 2.63189,-1.95275 0.99009,-2.0012"
         id="path1-7"
         sodipodi:nodetypes="ccccc" /><path
         style="fill:none;stroke:#000000;stroke-width:0.5;stroke-linecap:butt;stroke-linejoin:bevel;stroke-dasharray:1, 0.5;stroke-dashoffset:0;stroke-opacity:1"
         d="m 135.4545,47.841262 c -2.31742,0.23069 -4.54506,0.362 0.44451,1.49191 2.85474,0.75845 6.5203,1.03924 8.69641,0.99689 2.7721,-5.2e-4 3.38133,-0.0905 7.11684,-0.71386 6.78717,-2.44015 2.63189,-1.95275 0.99009,-2.0012"
         id="path1-7-43"
         sodipodi:nodetypes="ccccc" /><path
         style="fill:none;stroke:#000000;stroke-width:0.5;stroke-linecap:butt;stroke-linejoin:bevel;stroke-dasharray:1, 0.5;stroke-dashoffset:0;stroke-opacity:1"
         d="m 172.27352,47.067552 c -2.31742,0.23069 -4.54506,0.362 0.44451,1.49191 2.85474,0.75845 6.5203,1.03924 8.69641,0.99689 2.7721,-5.2e-4 3.38133,-0.0905 7.11684,-0.71386 6.78717,-2.44015 2.63189,-1.95275 0.99009,-2.0012"
         id="path1-7-43-6"
         sodipodi:nodetypes="ccccc" /><path
         style="fill:none;stroke:#000000;stroke-width:0.5;stroke-linecap:butt;stroke-linejoin:bevel;stroke-dasharray:1, 0.5;stroke-dashoffset:0;stroke-opacity:1"
         d="m 103.56349,57.819002 c -1.0615,0.54467 -1.35212,0.95283 2.48081,1.79358 4.30039,0.5442 4.22682,0.20108 7.8189,-0.39572 2.09807,-0.48007 0.75171,-1.0896 0.613,-1.247"
         id="path1-7-4"
         sodipodi:nodetypes="cccc" /><path
         style="fill:none;stroke:#000000;stroke-width:0.5;stroke-linecap:butt;stroke-linejoin:bevel;stroke-dasharray:1, 0.5;stroke-dashoffset:0;stroke-opacity:1"
         d="m 139.65707,58.376442 c -1.04411,0.5773 -2.36653,1.72027 1.48234,2.17533 4.31519,0.41068 4.4959,0.008 7.91445,-0.48121 1.63263,-1.27787 -0.63151,-1.60409 -0.77503,-1.75712"
         id="path1-7-4-8"
         sodipodi:nodetypes="cccc" /><path
         style="fill:none;stroke:#000000;stroke-width:0.5;stroke-linecap:butt;stroke-linejoin:bevel;stroke-dasharray:1, 0.5;stroke-dashoffset:0;stroke-opacity:1"
         d="m 101.38876,66.017372 c 0.66311,-0.0831 -4.076789,0.31271 0.44451,1.49191 2.85475,0.75845 4.71027,0.81298 6.88637,0.77063 2.77209,-5.1e-4 2.29375,0.27206 6.66435,-0.56302 2.36634,-0.29252 1.80006,-1.87208 0.16048,-1.92578"
         id="path1-7-8"
         sodipodi:nodetypes="ccccc" /><path
         style="fill:none;stroke:#000000;stroke-width:0.510214;stroke-linecap:butt;stroke-linejoin:bevel;stroke-dasharray:1.02043, 0.510214;stroke-dashoffset:0;stroke-opacity:1"
         d="m 136.24628,65.435312 c -0.48059,0.1384 -3.88125,0.78561 1.02207,1.59246 3.73066,0.71108 6.43507,0.34465 7.14239,0.39581 2.89758,-5.1e-4 2.3976,0.27102 6.96606,-0.56087 2.47348,-0.2914 1.54709,-2.60866 -0.22246,-1.91841"
         id="path1-7-8-4"
         sodipodi:nodetypes="ccccc" /><path
         style="fill:none;stroke:#000000;stroke-width:0.513092;stroke-linecap:butt;stroke-linejoin:bevel;stroke-dasharray:1.02618, 0.513092;stroke-dashoffset:0;stroke-opacity:1"
         d="m 64.588815,47.442282 c -2.44862,0.22991 -4.802377,0.36078 0.469676,1.48688 3.01636,0.7559 6.889445,1.03574 9.188754,0.99354 2.929042,-5.2e-4 3.572763,-0.0902 7.519758,-0.71146 7.171424,-2.43193 2.780894,-1.94617 1.046144,-1.99446"
         id="path1-7-43-67"
         sodipodi:nodetypes="ccccc" /><path
         style="fill:none;stroke:#000000;stroke-width:0.508758;stroke-linecap:butt;stroke-linejoin:bevel;stroke-dasharray:1.01752, 0.508758;stroke-dashoffset:0;stroke-opacity:1"
         d="m 24.226884,47.520452 c -2.404732,0.23017 -4.716301,0.36119 0.461257,1.48855 2.962296,0.75674 6.765961,1.0369 9.024059,0.99464 2.876542,-5.2e-4 3.508726,-0.0903 7.384976,-0.71225 7.042886,-2.43465 2.73105,-1.94835 1.027393,-1.99669"
         id="path1-7-43-5"
         sodipodi:nodetypes="ccccc" /><path
         style="fill:none;stroke:#000000;stroke-width:0.393421;stroke-linecap:butt;stroke-linejoin:bevel;stroke-dasharray:0.786844, 0.393421;stroke-dashoffset:0;stroke-opacity:1"
         d="m 27.862697,58.412472 c -1.384794,0.23902 -2.715939,0.37507 0.265621,1.54576 1.705875,0.78582 3.896261,1.07674 5.196614,1.03286 1.656492,-5.3e-4 2.020542,-0.0938 4.252728,-0.73962 4.314396,-1.75223 1.572709,-2.02323 0.591637,-2.07343"
         id="path1-7-43-2"
         sodipodi:nodetypes="ccccc" /><path
         style="fill:none;stroke:#000000;stroke-width:0.517334;stroke-linecap:butt;stroke-linejoin:bevel;stroke-dasharray:1.03467, 0.517334;stroke-dashoffset:0;stroke-opacity:1"
         d="m 23.23313,66.383632 c -2.49205,0.22966 -4.887554,0.36039 0.478006,1.48523 3.069859,0.75506 7.011639,1.03459 9.35173,0.99243 2.980993,-5.2e-4 3.636132,-0.0901 7.653132,-0.71067 7.298619,-2.42922 2.830217,-1.94399 1.064698,-1.99222"
         id="path1-7-43-9"
         sodipodi:nodetypes="ccccc" /><path
         style="fill:none;stroke:#000000;stroke-width:0.468004;stroke-linecap:butt;stroke-linejoin:bevel;stroke-dasharray:0.936008, 0.468004;stroke-dashoffset:0;stroke-opacity:1"
         d="m 65.975013,66.350212 c -2.012337,0.23276 -3.946713,0.36524 0.385991,1.50525 2.47892,0.76523 5.661917,1.04852 7.551547,1.0058 2.40716,-5.2e-4 2.936185,-0.0913 6.179923,-0.72024 5.893655,-2.46196 2.285409,-1.9702 0.859748,-2.01908"
         id="path1-7-43-57"
         sodipodi:nodetypes="ccccc" /><path
         style="fill:none;stroke:#000000;stroke-width:0.411837;stroke-linecap:butt;stroke-linejoin:bevel;stroke-dasharray:0.823672, 0.411837;stroke-dashoffset:0;stroke-opacity:1"
         d="m 67.895561,58.211792 c -1.533716,0.23648 -3.008014,0.37109 0.294186,1.52937 1.889326,0.7775 4.315268,1.06533 5.755463,1.02192 1.834632,-5.4e-4 2.237834,-0.0927 4.71007,-0.73179 4.491889,-2.50141 1.74184,-2.00178 0.655263,-2.05144"
         id="path1-7-43-7"
         sodipodi:nodetypes="ccccc" /><path
         style="fill:none;stroke:#000000;stroke-width:0.452577;stroke-linecap:butt;stroke-linejoin:bevel;stroke-dasharray:0.905156, 0.452577;stroke-dashoffset:0;stroke-opacity:1"
         d="m 174.33053,58.890232 c -1.87151,0.23404 -3.67051,0.36727 0.35898,1.51357 2.30544,0.76946 5.26568,1.05433 7.02308,1.01136 2.2387,-5.3e-4 2.73071,-0.0919 5.74743,-0.72422 5.48121,-2.47558 2.12547,-1.9811 0.79958,-2.03025"
         id="path1-7-43-38"
         sodipodi:nodetypes="ccccc" /><path
         style="fill:none;stroke:#000000;stroke-width:0.498816;stroke-linecap:butt;stroke-linejoin:bevel;stroke-dasharray:0.997631, 0.498816;stroke-dashoffset:0;stroke-opacity:1"
         d="m 171.74556,66.573592 c -2.30642,0.23069 -4.52347,0.362 0.44239,1.49194 2.84118,0.75846 6.48933,1.03926 8.65511,0.99691 2.75893,-5.2e-4 3.36526,-0.0905 7.08302,-0.71387 6.75493,-2.44019 2.6194,-1.95279 0.98539,-2.00125"
         id="path1-7-43-56"
         sodipodi:nodetypes="ccccc" /></g></g></svg>
