<?xml version="1.0" encoding="UTF-8" standalone="no"?>
<!-- Created with Inkscape (http://www.inkscape.org/) -->

<svg
   width="210mm"
   height="297mm"
   viewBox="0 0 210 297"
   version="1.1"
   id="svg1"
   xml:space="preserve"
   inkscape:version="1.3 (0e150ed6c4, 2023-07-21)"
   sodipodi:docname="Corpos Femininos - Oval.svg"
   inkscape:export-filename="Corpos Femininos - Oval.png"
   inkscape:export-xdpi="96"
   inkscape:export-ydpi="96"
   xmlns:inkscape="http://www.inkscape.org/namespaces/inkscape"
   xmlns:sodipodi="http://sodipodi.sourceforge.net/DTD/sodipodi-0.dtd"
   xmlns="http://www.w3.org/2000/svg"
   xmlns:svg="http://www.w3.org/2000/svg"><sodipodi:namedview
     id="namedview1"
     pagecolor="#505050"
     bordercolor="#eeeeee"
     borderopacity="1"
     inkscape:showpageshadow="0"
     inkscape:pageopacity="0"
     inkscape:pagecheckerboard="0"
     inkscape:deskcolor="#505050"
     inkscape:document-units="mm"
     inkscape:zoom="0.57103675"
     inkscape:cx="395.77137"
     inkscape:cy="429.91979"
     inkscape:window-width="1600"
     inkscape:window-height="837"
     inkscape:window-x="-8"
     inkscape:window-y="-8"
     inkscape:window-maximized="1"
     inkscape:current-layer="layer1"
     showguides="true" /><defs
     id="defs1" /><g
     inkscape:label="Camada 1"
     inkscape:groupmode="layer"
     id="layer1"><g
       id="g3-6-4-03-1"
       style="fill:#ffffff;stroke:#b3b3b3"
       transform="matrix(5.19368,0,0,5.19368,1728.6521,-221.67444)"><path
         style="fill:#ffffff;stroke:#b3b3b3;stroke-width:0.264999;-inkscape-stroke:none"
         d="m -316.22759,46.452242 c -0.10544,-3.81664 7.09744,-5.307376 7.93467,0.02894 0.10751,2.5355 -1.99031,9.902603 -5.61798,7.06591 -1.70756,-2.259277 -2.19998,-4.566489 -2.31669,-7.094854 z m 11.95961,41.89843 0.26063,-2.808987 c 0.41221,0.812233 0.73486,1.804952 0.46333,2.693156 z m -9.61395,-34.890445 c 0.56631,1.870553 0.20887,2.230761 -2.40357,3.64878 -2.23162,0.129466 -4.11655,0.895023 -3.88046,4.025259 -0.0801,2.99407 0.49426,5.86481 -0.26064,9.00614 -1.77795,3.55832 -0.99673,8.115208 -1.41897,12.307428 l -1.47689,4.31485 c -0.12263,0.57066 -0.017,1.52784 0.14479,2.63523 0.41102,0.4399 1.6569,0.72717 2.46149,1.21627 0.37375,-0.19004 0.19615,-0.45401 -0.029,-0.75293 -0.99202,-0.0056 -1.17767,-0.656374 -1.76647,-0.98459 l 0.78187,-2.3167 c -0.01,0.907373 0.4156,1.901721 -0.0289,2.72212 l 0.58268,0.291039 c 0.30113,-0.893874 0.17682,-2.035534 0.51775,-3.013149 l 0.17373,-1.9692 -0.11583,-1.79543 c 0.011,-0.893716 -0.20202,-4.599371 2.49044,-11.264918 0.25558,-2.123321 0.16687,-4.475702 0.20277,-6.139238 1.78055,2.802962 0.84448,3.686758 -0.23165,6.284033 -0.82758,2.07009 -2.31877,6.405238 -2.37462,8.629678 -1.39123,6.350203 3.68597,12.080988 5.73382,18.30187 l 4.92263,-0.005 c -0.53019,-4.824858 -0.65692,-9.620756 -2.20054,-14.503531 0.4752,0.07078 1.02949,-0.210696 1.39002,-0.636797 0.96572,5.045173 0.81618,9.948023 0.89739,15.140615 l 2.28808,-0.05316 c 1.78395,-6.22513 4.03035,-12.229558 3.79359,-18.591452 -0.47575,-1.738851 -0.61674,-4.498427 -0.75294,-7.442377 -0.37504,-2.126427 -0.46245,-2.160968 -1.24522,-5.328404 l 0.72398,2.606291 c 0.69168,2.190498 0.44605,3.817736 0.78187,5.589014 -0.19922,2.428667 1.06581,5.435715 0.34751,8.13739 l -0.17375,1.998148 -0.55021,3.243365 c -0.0927,0.0772 -0.11645,0.06759 0.11583,0.144795 l 1.41898,-0.08686 0.17375,-0.69501 h 0.28958 l 0.17376,-0.57917 h 0.23167 l 0.28958,-1.3321 c -0.006,-0.68044 -0.37451,-1.525524 -0.60813,-2.43254 0.0473,-2.95034 0.28609,-5.729403 0.0579,-9.093013 0.22092,-1.29349 0.071,-2.58697 0,-3.88046 -0.42219,-3.96196 -0.47935,-6.90819 -1.07147,-11.90201 -0.66163,-2.22474 -1.49823,-2.6271 -3.06961,-2.75107 -2.43546,-0.11833 -4.32194,-1.063611 -3.73567,-3.214401 -0.93127,1.0827 -2.3639,1.622331 -3.67774,0.550151"
         id="path5-5-0-5-4-0"
         sodipodi:nodetypes="ccccccccccccccccccccccccccccccccccccccccccccccccccccccccc" /></g><path
       style="fill:#000000;fill-opacity:1;stroke:#000000;stroke-width:1.37632;-inkscape-stroke:none"
       d="m 116.11009,209.88247 c 20.20534,-21.05895 26.08723,-17.51236 35.2523,-17.65525 -0.19428,-4.19944 -2.45073,-9.17729 -2.2326,-12.85714 0.34382,-5.80565 0.28151,-11.05559 -0.0565,-15.86333 -1.13155,-16.08565 -5.34827,-27.22091 -7.74086,-37.65438 10.73824,-14.99342 -0.58907,-26.473749 -5.46348,-28.345962 1.4093,-11.094074 0.74378,-16.206349 3.66128,-26.546359 -1.60216,-0.786372 -2.48248,-1.907583 -4.351,-1.628579 -2.33384,10.290032 -2.4975,14.743153 -2.93819,25.574038 -14.55135,5.121282 -17.65809,16.646422 -43.397607,2.995865 -0.48977,-9.071476 -0.62839,-13.500758 -2.67388,-23.350096 -1.56801,-0.13865 -2.229419,-1.163615 -4.820329,0.487639 2.41334,8.233125 3.507599,14.673344 4.343299,22.906455 -14.7983,12.295579 -6.10537,24.530319 -5.16085,32.784889 1.78106,15.56535 -15.22248,42.26062 -17.24058,61.50975 30.78528,-7.68306 39.776597,18.26792 43.467817,21.49408 3.74446,3.2727 7.18333,0.17415 9.80358,-4.55575"
       id="path3-2-1-4-5-2"
       sodipodi:nodetypes="ccsscccccccccscsc" /></g></svg>
