<?xml version="1.0" encoding="UTF-8" standalone="no"?>
<!-- Created with Inkscape (http://www.inkscape.org/) -->

<svg
   width="210mm"
   height="297mm"
   viewBox="0 0 210 297"
   version="1.1"
   id="svg1"
   xml:space="preserve"
   inkscape:version="1.3 (0e150ed6c4, 2023-07-21)"
   sodipodi:docname="Corpos Femininos - Retângulo.svg"
   inkscape:export-filename="Corpos Femininos - Retângulo.png"
   inkscape:export-xdpi="96"
   inkscape:export-ydpi="96"
   xmlns:inkscape="http://www.inkscape.org/namespaces/inkscape"
   xmlns:sodipodi="http://sodipodi.sourceforge.net/DTD/sodipodi-0.dtd"
   xmlns="http://www.w3.org/2000/svg"
   xmlns:svg="http://www.w3.org/2000/svg"><sodipodi:namedview
     id="namedview1"
     pagecolor="#505050"
     bordercolor="#eeeeee"
     borderopacity="1"
     inkscape:showpageshadow="0"
     inkscape:pageopacity="0"
     inkscape:pagecheckerboard="0"
     inkscape:deskcolor="#505050"
     inkscape:document-units="mm"
     inkscape:zoom="0.61580177"
     inkscape:cx="430.33328"
     inkscape:cy="708.83199"
     inkscape:window-width="1600"
     inkscape:window-height="837"
     inkscape:window-x="-8"
     inkscape:window-y="-8"
     inkscape:window-maximized="1"
     inkscape:current-layer="layer1"
     showguides="false" /><defs
     id="defs1" /><g
     inkscape:label="Camada 1"
     inkscape:groupmode="layer"
     id="layer1"><g
       id="g3-6-4-5-1"
       style="fill:#ffffff;stroke:#b3b3b3"
       transform="matrix(5.2140563,0,0,5.2140563,1733.4293,-228.31434)"><path
         style="fill:#ffffff;stroke:#b3b3b3;stroke-width:0.264999;-inkscape-stroke:none"
         d="m -316.02076,47.593978 c 0.0409,-3.903874 7.17711,-5.230782 8.05547,0.11582 0.23169,2.636108 -2.4607,11.048433 -5.61798,7.06591 -1.9704,-2.18418 -2.59842,-4.57404 -2.43749,-7.18173 z m -1.19145,18.90723 c -0.0597,-0.99425 0.035,-1.9885 0.20271,-2.98275 m 12.90533,26.028956 0.3595,-2.633529 c 0.34488,0.686803 0.73018,1.545934 0.5353,2.556594 z m -9.53701,-34.829616 c 0.39427,1.78395 -0.004,2.59964 -2.40357,3.64878 -2.08044,0.301536 -3.96918,0.645163 -3.98927,3.955346 -0.0801,2.99407 0.77392,5.987671 0.019,9.129001 -1.77795,3.55832 -1.14856,8.248007 -1.5708,12.440227 l -1.35402,4.273896 c -0.12263,0.57066 -0.0989,1.568794 0.0629,2.676184 0.41102,0.4399 1.45213,0.686216 2.25672,1.175316 0.37375,-0.19004 0.19615,-0.45401 -0.029,-0.75293 l -1.76647,-0.98459 0.78187,-2.3167 0.13491,2.763074 0.43789,0.221126 c 0.69015,-0.8383 0.2781,-1.98939 0.49873,-2.98419 l 0.17373,-1.9692 -0.11583,-1.79543 c 1.0388,-3.76066 2.11585,-7.38965 2.72211,-11.43867 0.45393,-1.96041 0.54254,-4.63064 0.55024,-6.31299 0.69466,2.53149 1.45415,6.11243 0.40542,8.71656 -0.82758,2.07009 -1.33417,4.20438 -1.39002,6.42882 -0.15889,6.07635 1.75715,12.861993 3.77868,19.088722 l 4.65072,0.036 c 0.12703,-4.846047 -1.10749,-9.855185 -1.8798,-15.17601 0.42043,0.102333 0.82841,-0.594722 1.14636,-1.004777 0.33774,5.140881 0.79835,10.604486 1.13609,16.164107 l 2.11432,-0.0242 c 1.78395,-6.225132 3.03256,-12.958802 2.37461,-19.489172 0.33409,-2.60988 -0.8308,-4.91461 -1.47689,-7.38446 -0.50755,-1.84064 0.87792,-7.12725 0.20271,-10.36721 l 1.27625,7.341458 c -0.0995,2.03675 0.39192,4.319232 0.86669,6.355992 -0.20269,2.971146 0.23847,5.222135 0.3206,7.70301 l -0.58123,1.73752 -0.3475,3.3592 c -0.0927,0.0772 -0.11649,0.15447 0.11583,0.23167 l 1.67961,-0.0579 0.17375,-0.69501 h 0.28958 l 0.17376,-0.57917 h 0.23167 l 0.28958,-1.3321 c 0.25135,-0.52581 -0.2579,-1.45556 -0.60813,-2.43254 0.0473,-2.95034 0.43089,-5.78732 0.20269,-9.15093 0.22092,-1.29349 0.071,-2.58697 0,-3.88046 -0.42219,-3.96196 -0.47935,-6.90819 -1.07147,-11.90201 -0.50762,-1.916729 -1.06421,-2.280328 -2.80898,-2.75107 -2.76395,-0.11833 -5.30258,-0.65819 -4.08318,-2.80898 -0.98785,1.648548 -2.32962,1.742861 -3.59086,0.14473"
         id="path5-5-0-5-2-7"
         sodipodi:nodetypes="cccccccccccccccccccccccccccccccccccccccccccccccccccccccccc" /></g><path
       style="fill:#000000;stroke:#000000;stroke-width:1.38173;-inkscape-stroke:none"
       d="m 82.663271,133.33777 c -2.395172,-5.33206 -3.750839,-25.31857 -1.811942,-30.19851 l 2.010501,0.31648 C 82.7919,94.525593 81.407687,83.579973 80.143944,75.824217 c 1.201113,-1.161994 2.476777,-1.727204 4.076763,0.301896 2.595047,10.386768 1.975103,19.083545 2.264989,27.933517 26.761664,9.46524 28.524174,7.07069 43.636804,0.15108 1.00365,-10.868507 2.22803,-22.482713 3.96032,-34.079876 0.7323,-1.269904 2.74817,-1.461428 4.58927,-0.628462 -0.98971,10.166793 -2.82769,23.21969 -4.62393,33.386468 l 3.2606,-0.32328 c 2.35962,12.77435 2.0726,25.13695 -1.26199,39.05016 -0.16322,6.7586 0.34946,15.543 4.14474,26.82539 3.3333,8.15848 5.1321,16.30236 4.48426,25.59831 -19.13899,-2.52553 -17.86287,9.49564 -31.76175,22.57718 -1.25768,0.7916 -4.19745,2.07568 -4.85248,0.65766 -8.361215,-19.34419 -21.314397,-21.94462 -34.12864,-22.0257 1.623303,-10.61135 1.597324,-22.74302 7.562368,-33.51992 3.134625,-6.14887 3.133129,-20.43399 1.168003,-28.39101 z"
       id="path5-5-2-0-4"
       sodipodi:nodetypes="cccccccccccccccccccc" /></g></svg>
