<?xml version="1.0" encoding="UTF-8" standalone="no"?>
<!-- Created with Inkscape (http://www.inkscape.org/) -->

<svg
   width="210mm"
   height="297mm"
   viewBox="0 0 210 297"
   version="1.1"
   id="svg1"
   xml:space="preserve"
   inkscape:version="1.3 (0e150ed6c4, 2023-07-21)"
   sodipodi:docname="Corpos Femininos - Triângulo Invertido.svg"
   inkscape:export-filename="Corpos Femininos - Triângulo Invertido.png"
   inkscape:export-xdpi="96"
   inkscape:export-ydpi="96"
   xmlns:inkscape="http://www.inkscape.org/namespaces/inkscape"
   xmlns:sodipodi="http://sodipodi.sourceforge.net/DTD/sodipodi-0.dtd"
   xmlns="http://www.w3.org/2000/svg"
   xmlns:svg="http://www.w3.org/2000/svg"><sodipodi:namedview
     id="namedview1"
     pagecolor="#505050"
     bordercolor="#eeeeee"
     borderopacity="1"
     inkscape:showpageshadow="0"
     inkscape:pageopacity="0"
     inkscape:pagecheckerboard="0"
     inkscape:deskcolor="#505050"
     inkscape:document-units="mm"
     inkscape:zoom="0.80756792"
     inkscape:cx="407.39607"
     inkscape:cy="915.71245"
     inkscape:window-width="1600"
     inkscape:window-height="837"
     inkscape:window-x="-8"
     inkscape:window-y="-8"
     inkscape:window-maximized="1"
     inkscape:current-layer="layer1"
     showguides="true" /><defs
     id="defs1" /><g
     inkscape:label="Camada 1"
     inkscape:groupmode="layer"
     id="layer1"><g
       id="g3-6-4-4"
       style="fill:#ffffff;stroke:#b3b3b3"
       transform="matrix(5.2934361,0,0,5.2934361,1756.3085,-229.01725)"><path
         style="fill:#ffffff;stroke:#b3b3b3;stroke-width:0.264999;-inkscape-stroke:none"
         d="m -316.34342,46.973498 c -0.10544,-3.81664 6.86577,-5.336335 7.703,-1.5e-5 0.11208,2.61685 -2.41697,10.56777 -5.47318,7.06591 -1.9704,-2.18418 -2.39075,-4.458205 -2.22982,-7.065895 z m -2.1231,18.994106 c -0.0597,-0.99425 -0.10979,-1.727873 0.0579,-2.722123 m 14.19853,25.278942 0.40542,-2.664193 c 0.19384,0.792628 0.96571,2.114097 0.37646,2.693156 z m -9.87457,-34.427105 c 0.0692,1.78395 -0.74143,3.062978 -2.89587,3.388152 -1.97099,0.10999 -3.72745,0.06257 -4.05421,3.909424 -0.0801,2.99407 0.75489,5.777934 -10e-6,8.919264 -1.77795,3.55832 -1.08361,8.086249 -1.50585,12.278469 l -1.41897,4.459643 c -0.12263,0.57066 -0.16179,1.556799 0,2.664189 0.41102,0.4399 1.6569,0.72717 2.46149,1.21627 0.37375,-0.19004 0.19615,-0.45401 -0.029,-0.75293 l -1.76647,-0.98459 0.78187,-2.3167 -0.0289,2.72212 0.43789,0.26208 c 0.69015,-0.8383 0.29711,-1.98939 0.51774,-2.98419 l 0.31853,-1.9692 -0.029,-1.969182 c 0.74211,-3.871919 1.73704,-7.654779 2.66419,-11.583463 0.45393,-1.96041 0.19504,-3.732922 0.20274,-5.415272 0.69466,2.53149 2.32291,5.388464 1.27418,7.992594 -0.82758,2.07009 -1.5948,4.175421 -1.65065,6.399861 -0.15889,6.07635 1.91685,12.625355 3.93838,18.852085 l 4.40138,-0.03396 c -0.31867,-4.873167 -0.82971,-9.477848 -1.7951,-14.74968 0.52127,-0.226898 0.69503,-0.446085 1.10045,-0.882944 0.78629,5.217907 0.76799,10.487991 0.8974,15.632912 l 2.05641,0.03372 c 1.78395,-6.22513 3.52485,-12.698172 2.8669,-19.228542 -1.19133,-3.372589 -1.04823,-4.936445 -1.65065,-7.38446 -0.31828,-2.07899 1.4358,-6.416312 1.30314,-9.614285 0.48767,2.581657 0.62452,4.33243 0.49231,6.776338 -0.0995,2.03675 0.36502,4.131427 0.83979,6.168187 -0.5379,2.83706 0.26421,5.777681 0.55021,8.340101 l -0.72396,1.274181 -0.17375,2.982737 c -0.12469,0.125183 -0.17121,0.641925 0.17375,0.550216 0.42974,0.03786 1.08794,0.17547 1.59273,-0.08686 l 0.0869,-0.69501 0.3475,-0.05792 0.11586,-0.434377 c 0.24041,0.190321 0.31376,-0.120542 0.40542,-0.376464 l -0.0289,-1.12939 c 0.25135,-0.52581 -0.0552,-1.339726 -0.40542,-2.316706 0.0473,-2.95034 0.31506,-5.903154 0.0869,-9.266764 0.22092,-1.29349 -0.0159,-2.58697 -0.0869,-3.88046 -0.42219,-3.96196 -0.40908,-5.745593 -0.78188,-11.178044 0.0515,-2.099819 -1.60972,-2.755243 -3.09857,-2.837946 -2.43546,-0.11833 -5.3355,-0.54235 -4.74923,-2.693145 -0.93127,1.0827 -1.7268,1.043158 -3.04064,-0.02902"
         id="path5-5-0-5-8"
         sodipodi:nodetypes="cccccccccccccccccccccccccccccccccccccccccccccccccccccccccc" /></g><path
       style="fill:#000000;fill-opacity:1;stroke:#000000;stroke-width:1.40275;-inkscape-stroke:none"
       d="m 138.53388,120.9706 c 2.74108,-17.36417 -0.26574,-19.18251 -3.9856,-20.54095 1.02206,-10.001592 2.21605,-18.773721 4.44543,-29.585144 -2.09906,-2.058235 -3.45647,-1.52058 -4.75202,-0.766478 -1.75869,11.773706 -2.04686,20.543977 -3.06581,31.577952 -15.97224,9.30251 -28.13794,12.07469 -53.191908,0.61312 -0.294048,-8.984712 -0.431505,-17.047395 -3.065813,-27.5923 -2.632023,-1.635671 -3.009261,-0.565594 -3.67897,0.153576 0.817547,8.028938 2.094977,18.008692 2.912525,26.825914 -3.657533,2.29588 -4.994076,7.36698 -2.146063,20.23437 1.799254,17.31282 14.205893,26.05055 -0.454178,54.60868 -2.883756,6.42587 -2.451134,12.85167 -2.611654,19.27752 23.357974,-0.82836 28.596643,10.55407 33.576401,22.111 4.4965,-0.005 8.99308,-9.41971 13.48958,-15.32909 5.66573,-5.18292 11.73448,-9.89169 24.21996,-7.05139 -1.68527,-12.46005 -2.7592,-25.35926 -7.97113,-35.87001 1.64954,-13.77591 3.8134,-26.52328 6.27925,-38.6667 z"
       id="path5-2-2-9"
       sodipodi:nodetypes="ccccccccccccccccc" /></g></svg>
