<?xml version="1.0" encoding="UTF-8" standalone="no"?>
<!-- Created with Inkscape (http://www.inkscape.org/) -->

<svg
   width="210mm"
   height="297mm"
   viewBox="0 0 210 297"
   version="1.1"
   id="svg1"
   xml:space="preserve"
   inkscape:version="1.3 (0e150ed6c4, 2023-07-21)"
   sodipodi:docname="Corpos Femininos - Triângulo.svg"
   inkscape:export-filename="Corpos Femininos - Triângulo.png"
   inkscape:export-xdpi="96"
   inkscape:export-ydpi="96"
   xmlns:inkscape="http://www.inkscape.org/namespaces/inkscape"
   xmlns:sodipodi="http://sodipodi.sourceforge.net/DTD/sodipodi-0.dtd"
   xmlns="http://www.w3.org/2000/svg"
   xmlns:svg="http://www.w3.org/2000/svg"><sodipodi:namedview
     id="namedview1"
     pagecolor="#505050"
     bordercolor="#eeeeee"
     borderopacity="1"
     inkscape:showpageshadow="0"
     inkscape:pageopacity="0"
     inkscape:pagecheckerboard="0"
     inkscape:deskcolor="#505050"
     inkscape:document-units="mm"
     inkscape:zoom="0.61580177"
     inkscape:cx="392.9836"
     inkscape:cy="574.04836"
     inkscape:window-width="1600"
     inkscape:window-height="837"
     inkscape:window-x="-8"
     inkscape:window-y="-8"
     inkscape:window-maximized="1"
     inkscape:current-layer="layer1"
     showguides="true" /><defs
     id="defs1" /><g
     inkscape:label="Camada 1"
     inkscape:groupmode="layer"
     id="layer1"><g
       id="g3-6-4-0-8"
       style="fill:#ffffff;stroke:#b3b3b3"
       transform="matrix(5.1537031,0,0,5.1537031,1716.9732,-220.08776)"><path
         style="fill:#ffffff;stroke:#b3b3b3;stroke-width:0.264999;-inkscape-stroke:none"
         d="m -316.4303,46.365366 c -0.10544,-3.81664 7.30015,-5.2205 8.13738,0.11582 0.2702,2.697992 -2.29632,11.949449 -5.8637,7.352586 -1.9704,-2.18418 -2.43461,-4.860716 -2.27368,-7.468406 z m -0.86382,20.627286 c -0.5197,-1.04025 -0.30502,-2.911192 0.4894,-3.842778 m 12.82342,26.72517 c -0.0592,-0.86637 0.25386,-1.679552 0.44141,-2.510668 0.13677,0.833228 0.53633,1.613898 0.33053,2.51564 -0.25731,0.147191 -0.51463,0.193902 -0.77194,-0.005 z m -10.15131,-35.935367 c 0.0692,1.78395 0.31218,2.92727 -1.87118,3.97641 -2.10176,0.142682 -5.06665,0.848594 -4.72643,4.528698 -0.13937,2.697709 0.44249,4.305472 0.10092,7.695621 -1.67157,4.72849 -1.47595,10.093427 -1.89842,14.283144 l -1.47689,4.31485 c -0.12263,0.57066 -0.017,1.52784 0.14479,2.63523 0.41102,0.4399 1.86167,0.768124 2.66626,1.257224 0.37375,-0.19004 0.19615,-0.45401 -0.029,-0.75293 l -1.97124,-1.025544 0.78187,-2.3167 c -0.11534,0.907373 0.30758,1.773793 0.13491,2.681166 l 0.64266,0.384941 c 0.38579,-1.142667 -0.0397,-2.184305 0.29396,-3.066097 0.22334,-0.821831 0.15072,-1.347696 0.17373,-1.9692 l -0.11583,-1.79543 c -1.36817,-5.74293 3.18269,-9.381607 3.62309,-13.158727 0.45393,-1.96041 0.37878,-2.951537 0.38648,-4.633887 0.84787,1.657664 3.34822,3.537836 -0.78224,6.95555 -0.82758,2.07009 -3.3409,4.654871 -3.39675,6.879311 -0.74355,6.427142 2.37778,13.972139 5.90827,19.293493 l 5.06025,-0.046 c -0.0144,-5.573666 -0.25554,-9.397919 -1.63407,-14.336449 m -0.0409,0.04095 c 0.45037,0.283115 0.98265,0.05496 1.43303,-0.533809 0.0873,4.770755 0.0615,10.179866 0.43988,14.853588 l 3.22007,-0.10611 c -0.24122,0.52564 1.46164,-2.920626 2.34482,-8.694217 0.45079,-2.946923 1.00567,-7.035038 1.34031,-10.098739 0.45517,-2.696369 -1.80744,-5.369587 -3.03313,-7.425414 -4.42895,-4.068825 0.17888,-6.804337 -0.002,-10.653886 l 0.98957,6.686198 c -0.0995,2.03675 0.18715,4.237325 0.66192,6.274085 1.9266,3.65856 1.15988,6.921771 0.89396,9.300205 l -0.21265,1.696567 -0.42941,3.441107 c -0.0927,0.0772 -0.11649,0.0097 0.11583,0.08688 0.77384,0.159008 1.13615,-0.02252 1.69409,-0.04342 0.17132,-0.09956 0.12875,-0.359535 0.15927,-0.564696 h 0.28958 c 0.16621,-0.08477 0.15475,-0.347202 0.17376,-0.57917 h 0.23167 c 0.25467,-0.412404 0.20617,-0.885444 0.28958,-1.3321 0.25135,-0.52581 -0.42171,-1.578421 -0.77194,-2.555401 0.0473,-2.95034 0.63565,-7.425469 0.40745,-10.789079 0.22092,-1.29349 -0.13376,-2.58697 -0.20476,-3.88046 -0.42219,-3.96196 -0.47935,-6.252931 -1.07147,-11.246751 -0.39327,-1.061825 -1.4201,-2.284847 -3.01375,-2.505347 -2.49823,-0.04551 -4.69254,0.01894 -4.53367,-2.727074 -1.16594,1.354864 -2.30058,0.947818 -3.42705,-0.469575"
         id="path5-5-0-5-6-7"
         sodipodi:nodetypes="cccccccccccccccccccccccccccccccccccccsccccccccccccccccccccccc" /></g><g
       id="g3-1-5-5"
       style="fill:#000000;stroke:#000000"
       transform="matrix(5.1537031,0,0,5.1537031,-29.039023,-586.16124)"><path
         style="fill:#000000;stroke:#000000;stroke-width:0.264999;-inkscape-stroke:none"
         d="m 35.45413,152.35356 c 0.200627,-2.65675 -0.911703,-5.16565 -2.837949,-7.54973 -1.373477,-2.11451 -1.828842,-4.26072 -0.827805,-6.44227 1.234784,-2.09794 0.564361,-2.68972 0.422384,-3.61486 0.27135,-2.13607 0.307022,-4.38997 0.86876,-6.38085 -0.308479,-0.15141 -0.600842,-0.36729 -0.960605,-0.31357 -0.449361,1.98126 -0.562773,3.94442 -0.647629,6.02982 -2.906765,0.80611 -3.756683,2.49072 -8.683482,0.12634 -0.0943,-1.74664 -0.161941,-3.33662 -0.555786,-5.23303 -0.301909,-0.0267 -0.321915,-0.0348 -0.820779,0.28314 0.464678,1.58522 0.445156,3.37314 0.606074,4.95836 -1.624759,1.98781 -0.772452,3.56256 0.05792,5.33688 0.75287,1.60423 0.32589,3.05751 -1.042512,5.09672 -1.559766,2.24386 -3.728359,3.92088 -3.822543,7.52925 9.601316,-1.19993 8.460939,7.86166 11.179711,3.68968 3.9412,-3.92653 5.091378,-3.49217 7.064241,-3.51588 z"
         id="path3-9-9-5"
         sodipodi:nodetypes="cccccccccccccccc" /></g></g></svg>
