<?xml version="1.0" encoding="UTF-8" standalone="no"?>
<!-- Created with Inkscape (http://www.inkscape.org/) -->

<svg
   width="210mm"
   height="120mm"
   viewBox="0 0 210 120"
   version="1.1"
   id="svg1"
   xml:space="preserve"
   sodipodi:docname="Corpos Masculinos - Medidas.svg"
   inkscape:version="1.3 (0e150ed6c4, 2023-07-21)"
   inkscape:export-filename="Corpos Masculinos - Medidas.png"
   inkscape:export-xdpi="96"
   inkscape:export-ydpi="96"
   xmlns:inkscape="http://www.inkscape.org/namespaces/inkscape"
   xmlns:sodipodi="http://sodipodi.sourceforge.net/DTD/sodipodi-0.dtd"
   xmlns="http://www.w3.org/2000/svg"
   xmlns:svg="http://www.w3.org/2000/svg"><sodipodi:namedview
     id="namedview1"
     pagecolor="#505050"
     bordercolor="#eeeeee"
     borderopacity="1"
     inkscape:showpageshadow="0"
     inkscape:pageopacity="0"
     inkscape:pagecheckerboard="0"
     inkscape:deskcolor="#505050"
     inkscape:document-units="mm"
     inkscape:zoom="0.80756792"
     inkscape:cx="395.01321"
     inkscape:cy="203.69804"
     inkscape:window-width="1600"
     inkscape:window-height="837"
     inkscape:window-x="-8"
     inkscape:window-y="-8"
     inkscape:window-maximized="1"
     inkscape:current-layer="layer1" /><defs
     id="defs1" /><g
     inkscape:label="Camada 1"
     inkscape:groupmode="layer"
     id="layer1"><g
       id="g3-6-4-0-7"
       style="fill:none;stroke:#ffffff"
       transform="translate(371.01601,25.166581)" /><g
       id="g3-6-4-7"
       style="fill:#ffffff;stroke:#ffffff"
       transform="translate(461.60529,26.72073)" /><g
       id="g1"
       transform="matrix(0.98285674,0,0,0.98285674,-0.23793297,-1.2506835)"><path
         style="fill:#ffffff;stroke:#b3b3b3;stroke-width:0.370263;-inkscape-stroke:none"
         d="m 53.805779,28.780242 c -0.395037,-4.79843 8.889032,-8.22663 9.519486,-0.61964 0.415757,5.73366 0.623678,10.3771 -7.361128,9.47211 -3.192149,-1.31272 -2.123624,-3.99743 -2.158358,-8.85247 z m 1.004085,8.17682 c -0.02683,0.40985 0.340518,0.82992 -1.596186,1.57677 -3.029682,1.16832 -5.930553,2.3594 -7.126086,3.17227 -2.598135,1.76653 -3.231916,4.84737 -3.809136,8.73834 -0.416192,2.80545 -3.583848,4.27158 -3.460432,6.62746 0.170616,3.25691 1.457681,7.91776 2.400275,10.11858 0.451932,0.90064 0.771281,2.33165 1.121774,3.63804 l 0.13595,1.5416 c 0.100603,0.95381 0.773363,1.76517 1.434472,1.65195 0.607722,-0.10406 1.191956,0.36464 1.552049,1.05033 0.307249,0.4139 0.41742,1.20475 1.329835,1.39805 0.08677,-0.31727 0.294184,-0.46289 0.02529,-1.02167 -0.453874,-0.85869 -0.597284,-1.12166 -0.858327,-1.64512 l 1.273177,-0.0573 c 0.474608,0.31929 0.940973,0.64316 1.079689,1.14905 0.569634,0.36514 0.937536,0.0487 1.171236,-0.0198 0.396295,-0.0674 0.392186,-0.4305 0.34566,-0.79117 -0.327342,-1.34652 -1.543597,-1.86133 -2.437806,-2.64095 0.827046,-0.0998 2.010996,0.35566 3.285039,0.26249 -0.500234,-2.21764 -3.894018,-0.2774 -5.543271,-1.73984 l -0.242795,-2.46816 c 0.09515,-5.57316 -0.639579,-7.85779 0.411551,-9.91066 0.990813,-2.8103 2.000432,-3.31913 2.144514,-4.65308 0.475028,1.70168 0.70494,2.98303 0.769072,4.03645 0.212239,3.48608 1.099252,4.43793 2.144137,9.63961 -3.897706,11.18916 -1.100188,18.7847 -0.632942,26.76113 0.118903,2.03089 -0.03339,5.80154 0.539747,7.567118 l 6.465255,-6e-5 c -0.435611,-2.292888 -0.45956,-4.173858 -0.06846,-5.598268 0.836279,-3.04603 2.203504,-6.27123 1.112637,-12.2481 -0.691388,-1.97719 0.174135,-4.18779 1.535184,1.47251 1.197588,4.98046 2.116456,8.40795 3.776329,12.83882 0.337625,0.90127 0.630329,2.41084 0.872257,3.511738 l 6.137971,-0.003 c -0.310477,-2.893928 -1.564959,-4.945078 -1.52402,-7.280878 2.878432,-22.61458 -5.869466,-25.87345 -0.491515,-34.95202 0.647291,-2.64804 1.940644,-3.98203 2.315784,-6.16661 1.659439,3.33487 1.998559,1.89802 2.612568,4.22802 -3.201818,6.22211 -2.802003,8.30112 -3.926263,11.34835 -0.462384,2.65206 -5.686361,1.65625 -7.23236,3.73944 -0.139932,0.18855 -0.217422,0.40058 -0.0069,0.64008 0.518955,0.26678 2.395356,-1.11774 2.724793,-1.23726 0.206705,-0.075 -0.789864,0.2599 -1.964872,1.88704 -0.235698,0.76051 -0.58953,1.99177 0.204037,2.53421 0.492883,0.3369 0.50768,-1.09543 0.61848,-1.80106 0.101152,-0.64412 1.156061,-1.34084 1.397865,-1.43709 -0.800874,0.89898 -1.084971,1.91626 -0.306355,3.39332 0.471814,0.60613 0.766308,0.31109 1.003387,0.28042 -0.0084,-0.45399 -1.232182,-1.55563 0.459938,-3.23388 -0.95489,0.61252 -1.165478,2.57075 -0.450226,3.20133 0.185159,0.16325 0.750881,0.4262 0.957977,0.1568 0.117786,-0.15319 0.467315,-0.5885 0.180004,-0.7535 -0.780614,-0.44832 -0.471534,-1.11138 -0.193864,-1.73202 1.266233,-0.54467 1.52335,-1.51617 2.515951,-1.34346 1.265966,0.22031 1.983943,-1.1528 2.773011,-2.69855 2.422742,-1.77663 6.894537,-10.04569 8.305633,-12.73234 1.145445,-2.18087 -0.407122,-4.11679 -1.399037,-6.14739 -1.105022,-2.26212 -2.06972,-5.51958 -3.513889,-8.16133 -0.589013,-1.07744 -1.818751,-1.72665 -2.887863,-2.52766 -0.759851,-0.5693 -3.251029,-0.54986 -4.126389,-1.11648 -0.885741,-0.57332 -1.809194,-1.11326 -2.902617,-1.40954 -1.505005,-0.0399 -2.976224,-0.12492 -2.445182,-2.23283 -0.349627,2.05507 -6.181619,3.79431 -8.389217,1.17094 m -4.917902,38.34275 c -0.630776,-1.80249 -1.862233,-2.30224 -3.299723,-2.45802"
         id="path5-5-0-5-7-0"
         sodipodi:nodetypes="cccccsssscccsccccccccccccccsccccscsscccccccscscssccccssscscsssssccccs" /><g
         id="g3-6-4-0-6"
         style="fill:#ffffff;stroke:#b3b3b3"
         transform="matrix(1.3972224,0,0,1.3972224,454.36789,-39.23095)"><path
           style="fill:#ffffff;stroke:#b3b3b3;stroke-width:0.264999;-inkscape-stroke:none"
           d="m -316.0828,48.276638 c -0.10544,-3.81664 6.72098,-5.162583 7.55821,0.173737 1.23948,7.248278 -8.15105,9.422974 -7.55821,-0.173737 z m 4.43078,35.53588 c 0.3123,3.050558 0.3011,7.42576 0.94216,11.626797 0.25797,1.690528 0.007,3.08145 -0.32853,4.993265 l 4.52321,0.01 c 0.3473,7.5e-4 -0.13998,-5.136655 0.78105,-10.837159 0.16507,-1.5792 0.0246,-3.053458 0.43007,-4.298896 1.78103,-5.470049 0.48046,-10.546717 -0.92211,-16.974905 -0.3515,-1.610949 -0.045,-3.443697 -0.18922,-5.224636 0.41116,1.784381 1.29567,3.397987 1.40723,5.382103 0.10418,0.924889 -0.39424,2.246276 -0.30767,3.373206 0.0932,1.213321 0.56985,2.521489 0.55193,3.652099 1.21099,-1.255773 2.77401,-2.481168 3.24661,-3.980623 0.31642,-1.003946 -0.24128,-1.954743 -0.3427,-2.799464 -0.25821,-2.150682 -1.09413,-3.832872 -1.14857,-5.591485 -0.0465,-1.501375 -0.85191,-2.912745 -1.5009,-4.831913 -0.39327,-1.061825 -0.86723,-1.998171 -2.46088,-2.218671 -2.42365,-0.306512 -3.14253,-0.109505 -3.12317,-2.367222 -1.0602,1.12978 -2.81145,1.310916 -4.29382,0.400659 -0.22885,1.65972 -1.07785,1.624586 -3.76653,2.336827 -1.23031,0.0657 -2.63025,0.540598 -2.83664,1.482569 -0.47748,2.179177 -1.4986,4.764371 -1.50237,7.568374 -0.002,1.138985 -0.34026,2.248631 -0.45312,3.336089 -0.18803,1.033399 -0.15934,1.885642 0.0485,2.443132 0.26265,0.704572 0.38559,1.437819 0.68819,2.056769 0.52959,1.083236 1.50307,1.904221 2.34906,2.441449 0.0535,-0.571476 0.25172,-3.351741 0.16982,-3.841436 -0.10631,-0.632666 -0.4773,-0.354749 -0.23672,-2.386301 0.51843,-4.384066 1.77754,-8.303869 2.12293,-8.950365 -0.28986,1.228194 -0.22811,5.659828 -1.57895,8.912475 -0.29702,0.715208 -0.42725,2.221049 -0.26479,4.466929 -0.45991,2.202417 -0.89111,4.364483 -0.99318,6.589724 0.11547,4.064333 0.7547,8.704879 1.85399,13.255648 0.3738,1.547413 -0.85124,4.413864 -0.14472,6.559104 l 4.59691,0.0409 c -0.8758,-4.938979 1.59782,-11.715612 1.71915,-16.820896 z"
           id="path5-5-0-5-6-8"
           sodipodi:nodetypes="ccccscscssccscssscccccsscsscsscsccscccc" /></g><g
         id="g3-6-4-0-73-9"
         style="fill:#ffffff;stroke:#b3b3b3"
         transform="matrix(1.3972224,0,0,1.3972224,540.22637,-39.48485)"><path
           style="fill:#ffffff;stroke:#b3b3b3;stroke-width:0.264999;-inkscape-stroke:none"
           d="m -315.56154,48.508307 c -0.10544,-3.81664 6.1418,-5.394252 6.97903,-0.05793 1.23948,7.248278 -7.57187,9.654643 -6.97903,0.05793 z m 4.60453,38.057341 c 0.60588,3.344142 0.0329,5.25153 0.94216,8.004907 0.45223,1.369413 0.19529,3.868772 0.51126,5.862025 l 5.59469,0.2706 c 0.18333,0.009 -0.30853,-3.638622 -1.41985,-7.39107 0.16507,-1.5792 0.48694,-6.264663 0.1984,-7.542267 -1.38284,-6.123176 -1.14178,-9.177416 -0.86419,-14.368625 0.0582,-1.087895 1.22093,-5.114756 0.38996,-7.764266 0.39384,1.600976 0.71832,4.307702 1.8536,5.908679 0.008,0.847398 -1.78274,1.026171 -2.14415,1.817416 -0.42722,0.935324 -0.27145,2.967984 -0.25955,4.001563 1.21099,-1.255773 4.06204,-2.350596 5.39026,-3.483357 0.80092,-0.683054 0.16826,-2.118558 0.0668,-2.963279 -0.25821,-2.150682 -1.01223,-3.710011 -1.06667,-5.468624 -0.0465,-1.501375 -0.0692,-1.308023 -0.71816,-3.227191 -0.39327,-1.061825 -2.08349,-1.998171 -3.67714,-2.218671 -2.42365,-0.306512 -4.0113,-1.789108 -3.99194,-4.046825 -1.0602,1.12978 -2.34811,1.137165 -3.83048,0.226908 0.0849,1.502851 -0.88937,2.949321 -4.17195,3.958511 -1.23031,0.0657 -2.86406,1.99142 -3.08322,2.930502 -0.73779,3.161362 -1.10038,5.567221 -1.52949,9.024207 0.77645,2.139883 2.99077,3.153479 4.35287,4.78415 0.0535,-0.571476 0.0443,-3.890092 -0.3555,-4.184469 -0.76503,-0.563353 -0.28865,-1.313266 -0.17476,-2.474279 0.19511,-1.988945 -0.88672,-4.437053 -0.41562,-5.930331 -0.71569,1.368111 1.07024,2.358149 0.97063,6.539571 -0.0159,0.669517 0.0469,0.426161 -0.0571,2.496534 -0.45991,2.202417 0.39712,3.321972 0.29502,5.547213 -0.23614,3.947127 -0.31035,12.100212 2.2015,16.846521 0.78866,1.490232 0.5003,4.824146 0.2607,6.732859 l 5.06025,0.0119 c 0.28496,-1.277373 0.87159,-3.25374 0.11941,-5.199601 -0.31468,-0.814057 -0.20086,-1.461817 -0.28423,-2.036364 -0.47671,-3.285326 -1.50678,-6.623823 -2.1702,-9.237429 l 1.89525,0.260343 z"
           id="path5-5-0-5-6-0-3"
           sodipodi:nodetypes="ccccscscssccscssscccccsccsscsccsccssccc" /></g><g
         id="g3-6-4-4"
         style="fill:#ffffff;stroke:#b3b3b3"
         transform="matrix(1.3972224,0,0,1.3972224,590.21839,-39.099803)"><path
           style="fill:#ffffff;stroke:#b3b3b3;stroke-width:0.264999;-inkscape-stroke:none"
           d="m -289.48477,48.294454 c -0.19704,-3.230422 6.43874,-4.763826 7.33442,-0.245737 0.64643,3.099294 -0.30412,8.543124 -5.26841,6.779233 -2.41413,-1.716462 -2.04863,-3.103597 -2.06601,-6.533496 z m 1.15301,5.731393 c 0.16345,1.353336 -0.23022,2.046076 -1.1424,2.05518 -9.94003,0.09921 -8.11839,12.456014 -8.78787,20.133256 l 0.33952,2.690652 0.12538,1.850898 c -0.18921,0.548467 -0.10707,2.353158 0.86003,3.728986 0.2199,0.296222 0.75917,0.464692 1.36102,0.608133 l 4e-5,-0.02895 c 0.32742,0.293873 0.70822,0.400374 0.95915,0.46479 0.58309,0.247848 0.54788,0.11626 0.49751,-0.295465 -0.22687,-0.877785 -0.21892,-1.52074 -0.72009,-2.672819 1.1312,2.09918 1.46943,1.070036 1.43533,0.534309 -0.33014,-1.234543 -0.44628,-2.440555 -1.88233,-3.822554 l -0.11588,-2.577314 c 1.12189,-3.871919 0.32303,-3.42505 1.25018,-7.353734 0.34226,-2.063761 0.49536,-1.789471 0.75296,-2.722117 0.79379,2.333229 1.33249,0.998396 0.23169,3.706713 -1.88747,2.812012 -1.22652,6.819288 -0.029,8.166339 -2.75491,8.042855 -1.01908,11.590976 -0.68467,17.299748 0.0851,1.453523 -0.51624,2.878021 -0.106,4.141653 l 4.97473,-0.11586 c -1.02436,-5.175611 3.01352,-6.859569 2.05456,-12.128646 -0.49484,-1.415094 0.96612,-3.170956 1.50998,0.959975 -0.0116,4.87595 1.21843,6.064966 1.34789,11.209911 l 5.75404,-0.14653 c -0.22221,-2.071193 -0.91738,-3.799852 -0.88804,-5.471598 0.0906,-5.162463 1.32047,-10.106334 0.74157,-15.956269 1.71773,-1.413424 1.19993,-5.673234 0.065,-8.479921 -0.33414,-2.123038 0.0151,-1.942194 0.4923,-3.446091 0.3025,2.581657 0.16309,1.175936 0.23168,3.619844 0.32933,1.983146 0.44043,2.112995 0.75292,4.17004 0.57912,3.085286 0.82015,3.092662 0.98459,5.62807 -0.0992,1.79593 -1.08901,2.91254 -1.46319,4.314694 -0.0729,0.687976 -0.11108,1.240486 0.0846,1.895653 0.6766,0.259977 0.64731,-1.041352 1.0131,-1.539437 0.58214,0.686696 -0.13677,2.026408 -0.58785,3.186264 0.20494,0.03563 0.4127,0.163485 0.59527,0.180215 1.58338,0.145035 2.36231,-0.445241 2.97065,-2.191635 0.25135,-0.52581 -0.0552,-2.609292 -0.40542,-3.586272 0.0473,-2.95034 0.10617,-5.305811 -0.12199,-8.669421 0.22092,-1.29349 -0.13173,-3.050309 -0.20273,-4.343799 -0.15937,-3.956717 0.32209,-10.59121 -5.39333,-12.139851 -2.82354,-0.11833 -3.82671,-1.6481 -3.11108,-3.798895 -0.77654,2.101517 -3.88545,3.067317 -5.74359,0.953871 m -6.24722,31.505408 c -0.79973,-0.946499 -1.2519,-1.932195 -1.5348,-2.80899 m 0.55022,2.374605 c -0.86265,-0.723966 -0.95316,-1.679602 -1.15834,-2.403568 m 22.12581,4.777017 c 0.44317,-0.785958 0.73702,-1.792101 0.67967,-2.539558 m -1.59471,2.845255 c 0.58433,-0.796513 1.07037,-1.711094 0.85754,-2.886209 m -1.67661,2.886209 c 0.77117,-0.844561 1.20982,-1.896521 0.9804,-3.050024"
           id="path5-5-0-5-8"
           sodipodi:nodetypes="cccccsccccccccccccccccsccccccsccccccccccsccccccccccccccccc" /></g><path
         style="fill:#ffffff;stroke:#b3b3b3;stroke-width:0.370263;-inkscape-stroke:none"
         d="m 152.5508,26.228422 c -0.48563,-6.00371 -10.50408,-4.58116 -9.81065,0.3457 -0.0488,5.34163 1.07453,6.12456 2.15125,8.24292 1.53174,3.0136 3.81191,3.75386 5.75314,0.37471 2.15493,-3.27859 2.34347,-7.22256 1.90626,-8.96333 z m 0.10323,13.3037 c 1.93995,1.28804 1.91489,1.55286 3.35334,1.63474 0.8591,0.0489 1.92089,0.41483 2.68552,0.67243 2.6898,0.90619 3.25727,5.27682 3.41198,8.59189 0.16352,3.50424 -1.16441,5.52925 -0.66666,6.74885 1.01537,2.48794 1.10925,9.73854 0.10828,12.6272 -0.45193,0.90063 -0.0834,2.33165 -0.43391,3.63803 0.69618,1.66688 1.52083,3.26033 0.75622,5.76193 -0.71098,0.86767 -0.7422,1.25907 -1.42599,1.5254 -0.75577,0.29436 -1.3679,0.58213 -1.69913,0.68452 -0.63082,0.40171 -0.78536,-1.42449 -0.66936,-1.92408 -0.50985,-0.76978 1.228,-0.8593 1.12619,-1.10275 -0.0811,-0.19402 0.97739,1.82364 1.4978,0.62755 0.27296,-0.62739 0.15049,-1.6272 0.17797,-2.93452 -0.59575,-0.13288 0.63332,5.36125 -1.66657,2.32604 0.57846,-2.17854 -0.66065,-3.30335 -0.0809,-5.30048 l -0.93059,-4.36985 c -0.22931,-5.47629 -1.25934,-6.95285 -0.81616,-10.15342 -0.0213,-2.71337 -0.19136,-7.42819 -0.3513,-8.76372 -0.28883,1.70782 -0.73192,6.97708 -1.05707,8.94005 -0.82227,4.96388 0.0322,3.56358 0.11359,8.52294 0.40515,4.52649 0.3656,7.74036 1.27241,11.0498 1.35564,4.94759 0.2923,9.19921 0.16976,13.97146 0.23288,1.15338 0.72332,3.63753 0.1584,5.99064 -0.35807,1.49149 0.63991,3.070438 0.64979,3.916328 l -5.93232,0.0266 c 0.4356,-2.292898 0.54296,-3.150778 0.29161,-4.606368 -0.46467,-2.69083 -3.50429,-7.64218 -4.35535,-14.01861 0.30912,-0.89125 -0.55338,-3.59644 -0.44524,-5.19219 0.0587,-0.86675 -0.76933,-0.24788 -0.74911,-0.0194 0.0843,0.95088 0.0272,2.57449 -0.0253,5.01527 -0.0984,4.57716 0.90134,6.9046 -0.56598,11.94868 -0.34535,1.18722 1.8649,5.707348 1.70343,6.727838 l -6.89979,0.25962 c 0.31047,-2.893918 -0.005,-6.238658 -0.0471,-8.574448 -1.71954,-10.7617 -5.28039,-15.5264 -1.33023,-27.40916 0.61308,-1.84429 0.0474,-4.156 0.15923,-6.72788 -0.41714,-2.74008 -0.319,-7.53749 -1.858,-9.25655 -0.15185,3.03335 0.23505,5.84591 -0.38093,8.17629 -0.20362,3.32764 0.14042,6.02776 -1.1412,11.0525 -0.21583,0.9019 -0.22037,2.53608 -0.55159,3.30322 -0.48065,1.11321 -0.005,2.26212 -0.44431,3.4084 -0.30687,0.8009 -0.31633,1.6148 -0.15319,2.46525 l 1.45484,1.15514 c 0.17463,0.76504 -0.0432,0.79748 -0.28812,0.76678 0.31499,0.40849 0.22724,0.56896 -0.067,0.5969 -0.18517,0.16325 0.0126,0.91218 -0.52883,0.47151 -2.37329,-1.84007 -2.67594,-3.81662 -1.95848,-5.43117 0.0985,0.3831 -0.41545,1.42046 -0.32796,1.94532 0.0815,0.48817 0.0143,1.01685 0.2638,1.28828 1.34975,1.46793 1.61884,1.75221 1.83881,2.18891 0.13176,0.26163 -1.1403,-0.0261 -2.66413,-2.09256 -0.40939,-0.46019 -0.38919,-1.41782 -0.39526,-2.38708 -0.008,-1.24058 0.59949,-2.36645 0.77357,-3.80135 0.27341,-2.25376 -0.067,-5.05288 -0.58228,-7.79442 -0.52233,-2.77849 0.46565,-6.13279 0.82682,-8.03569 0.33524,-1.76637 -1.21246,-10.01548 0.99614,-13.31127 0.66025,-0.98525 0.86128,-1.53817 2.77343,-2.35598 1.61993,-0.69284 3.83182,-2.13368 5.6131,-2.9426 1.42664,-0.64786 1.90733,-2.91875 1.61964,-4.16758 0.90757,2.22765 3.45044,4.1238 5.72514,0.32693 0.16901,0.19934 0.23918,3.17182 1.96844,4.31998 z m -16.06898,41.82593 c -0.38215,-0.35544 -1.23569,-1.28458 -1.91691,-1.65942 m 2.03136,0.94415 c -0.13135,-0.41434 -1.01689,-0.99827 -1.48777,-1.3447 m 0.5436,-2.97553 c -0.13622,1.17474 0.11765,2.62378 -0.77248,3.31886 -0.89921,0.12183 -0.52377,-2.18319 -0.74388,-3.31886 m 25.09461,4.81683 c 0.0408,-0.75524 0.51211,-1.45667 1.41616,-2.10401 m -2.42772,2.38724 c 0.35448,-0.88737 0.9272,-1.83609 1.49709,-2.18494 m -1.86124,1.45662 c 0.39834,-0.68063 0.914,-1.24397 1.41616,-1.82077"
         id="path5-5-0-5-7-6-8"
         sodipodi:nodetypes="ccscccsssscccsccssccccccscscsccscsssscccsccccssccccccssscsssssssccscccccccccccccc" /><path
         style="fill:#000000;stroke:#000000;stroke-width:0.370263;-inkscape-stroke:none"
         d="m 7.6889509,64.565882 c 2.7004901,0.53045 3.6223051,0.69402 5.4463501,1.06156 8.552037,1.72321 10.783124,-1.05142 15.059099,-1.49971 1.223894,5.10488 0.698596,10.90311 0.266477,15.97542 -1.318948,0.67292 -5.150963,0.83307 -7.991778,1.58496 -1.16246,-0.23819 -1.48428,0.0463 -1.618472,-0.48555 l 0.08093,-2.75138 -1.217916,-0.29018 c -0.03468,1.28507 0.434763,2.04005 -0.205185,3.02193 -3.668631,0.61162 -8.3794685,-1.16097 -12.0101777,-0.38498 0.3476071,-5.49682 1.0298674,-10.93857 2.1906833,-16.23207 z"
         id="path4-5"
         sodipodi:nodetypes="cscccccccccc" /><path
         style="fill:#000000;stroke:#000000;stroke-width:0.370263;-inkscape-stroke:none"
         d="m 180.17139,70.714052 c 3.84327,1.77981 7.116,2.85078 10.67623,2.31595 0.85029,-0.1277 4.19003,-0.15769 5.83049,-0.62052 1.51592,-0.42732 3.30983,-1.11239 4.65472,-1.85321 0.66713,3.91523 1.12448,7.86944 0.32369,11.4911 0.21833,1.81489 0.24875,3.06606 0.3237,4.45079 -4.15192,0.85759 -7.85889,0.55835 -11.24836,-0.56645 l -0.0809,-3.07509 -0.85664,2.86008 c -3.81492,1.10834 -7.71906,0.38038 -11.68647,-0.43238 0.0412,-6.10752 0.98563,-10.06819 2.06355,-14.57027 z"
         id="path5-2"
         sodipodi:nodetypes="csscccccccc" /><path
         style="fill:#000000;stroke:#000000;stroke-width:0.370263;-inkscape-stroke:none"
         d="m 96.381278,67.038182 c 5.981872,2.93734 11.451072,0.80612 16.148682,0.0335 0.48708,2.76232 0.50116,5.14895 0.53056,7.77232 l 1.17797,7.38157 c -1.11731,0.21383 -1.97161,0.5375 -4.18124,0.20518 -0.94736,-0.13469 -1.80791,-0.33898 -3.49052,0.11443 -0.95032,0.16605 -1.51663,0.58224 -2.03221,0.0237 -0.30723,-0.85031 0.38189,-2.60088 -0.67685,-4.20085 l 0.17169,4.39046 c -2.52243,0.32803 -5.760714,0.9488 -8.143437,0.0196 -0.295312,-4.90023 -0.766721,-10.60149 -0.300001,-15.95896 z"
         id="path6-5"
         sodipodi:nodetypes="cccccccccccc" /><path
         style="fill:#000000;stroke:#000000;stroke-width:0.370263;-inkscape-stroke:none"
         d="m 50.120325,67.200452 c 2.298835,0.97918 3.994295,1.64698 6.445192,1.56173 3.991501,-0.60168 5.324507,-0.76026 7.667663,-1.08721 1.381671,-0.12841 1.969119,-0.48373 2.28886,-0.91555 2.212361,3.37466 2.843823,7.23575 3.089957,11.21541 0.272417,1.8636 0.255216,3.00318 0.228894,4.11995 -3.126691,1.84189 -6.283967,1.23204 -11.100975,1.20165 0.02906,-1.08111 -0.516218,-1.7794 -0.915516,-2.57496 -0.103669,0.59842 -0.477738,1.01667 -0.171663,1.8883 -3.22402,0.28393 -6.435873,0.61651 -9.956537,-0.28612 -0.208619,-5.02363 0.278508,-9.82639 2.424125,-15.1232 z"
         id="path7-6"
         sodipodi:nodetypes="ccccccccccc" /><path
         style="fill:#000000;stroke:#000000;stroke-width:0.370263;-inkscape-stroke:none"
         d="m 139.85594,66.967202 c 2.29884,0.97918 4.35845,1.68746 6.80934,1.60219 3.99152,-0.60167 5.32453,-0.76026 7.66769,-1.08721 1.38167,-0.1284 1.56857,-0.36928 1.88831,-0.80109 0.57509,5.18619 0.66112,6.69608 0.91552,10.52873 0.27243,1.86361 0.9991,4.83427 0.97279,5.95104 -3.12669,1.84189 -4.96787,1.91872 -9.78488,1.88833 0.0301,-1.09047 -0.37403,-6.32072 -0.91552,-5.83661 -0.10366,0.59843 -0.30608,5.65162 0,6.52325 -3.22403,0.28393 -5.29146,-0.92846 -8.81212,-1.83108 -0.55618,-4.93674 -1.14689,-11.57572 1.25887,-16.93755 z"
         id="path7-9-7"
         sodipodi:nodetypes="ccccccccccc" /><ellipse
         style="fill:#b3b3b3;fill-opacity:0.677725;stroke:none;stroke-width:0.732938;stroke-dasharray:none;stroke-dashoffset:0;stroke-opacity:1"
         id="path2"
         cx="190.45901"
         cy="59.204586"
         rx="17.367773"
         ry="21.241171" /><rect
         style="fill:#b3b3b3;fill-opacity:0.68;stroke:none;stroke-width:0.583752;stroke-dasharray:none;stroke-dashoffset:0;stroke-opacity:1"
         id="rect2"
         width="21.854568"
         height="35.963932"
         x="92.466698"
         y="41.35368"
         transform="matrix(0.99992132,-0.01254396,0.01323423,0.99991242,0,0)" /><path
         style="fill:#b3b3b3;fill-opacity:0.677725;stroke:none;stroke-width:1.14717;stroke-dasharray:none;stroke-dashoffset:0;stroke-opacity:1"
         d="M 34.129068,38.874439 81.529302,38.185089 60.225131,89.276701 Z"
         id="path4"
         sodipodi:nodetypes="cccc" /><path
         style="fill:#b3b3b3;fill-opacity:0.677725;stroke:none;stroke-width:0.871865;stroke-dasharray:none;stroke-dashoffset:0;stroke-opacity:1"
         d="M 34.335224,77.809504 1.961399,77.819256 17.511572,34.867023 Z"
         id="path4-2"
         sodipodi:nodetypes="cccc" /><path
         style="fill:none;stroke:#000000;stroke-width:0.622037;stroke-linecap:butt;stroke-linejoin:bevel;stroke-dasharray:1.24408, 0.622037;stroke-dashoffset:0;stroke-opacity:1"
         d="m 90.604449,45.646231 c -3.708864,0.223091 -7.274056,0.350077 0.711425,1.442771 4.568811,0.73347 10.435316,1.005012 13.918026,0.964056 4.43656,-5.02e-4 5.41161,-0.08752 11.39005,-0.690348 10.86242,-2.35978 4.21217,-1.888432 1.58458,-1.935287"
         id="path1-7"
         sodipodi:nodetypes="ccccc" /><path
         style="fill:none;stroke:#000000;stroke-width:0.665275;stroke-linecap:butt;stroke-linejoin:bevel;stroke-dasharray:1.33055, 0.665275;stroke-dashoffset:0;stroke-opacity:1"
         d="m 174.82699,47.15305 c -4.28694,0.220773 -8.4078,0.346439 0.82229,1.427781 5.28093,0.725848 12.06177,0.994568 16.0873,0.954039 5.12806,-4.98e-4 6.25506,-0.08661 13.16529,-0.683176 12.55544,-2.335262 4.86869,-1.868812 1.83155,-1.91518"
         id="path1-7-43-6"
         sodipodi:nodetypes="ccccc" /><path
         style="fill:none;stroke:#000000;stroke-width:0.636045;stroke-linecap:butt;stroke-linejoin:bevel;stroke-dasharray:1.27209, 0.636045;stroke-dashoffset:0;stroke-opacity:1"
         d="m 94.831289,56.771806 c -1.835718,0.509664 -2.338305,0.891591 4.290216,1.678306 7.436925,0.509224 7.309705,0.188156 13.521705,-0.370287 3.62832,-0.449216 1.29998,-1.019571 1.0601,-1.166855"
         id="path1-7-4"
         sodipodi:nodetypes="cccc" /><path
         style="fill:none;stroke:#000000;stroke-width:0.554183;stroke-linecap:butt;stroke-linejoin:bevel;stroke-dasharray:1.10837, 0.554183;stroke-dashoffset:0;stroke-opacity:1"
         d="m 94.792109,66.726975 c 0.83237,-0.08133 -5.117485,0.306035 0.55798,1.460065 3.583471,0.742261 5.912651,0.795627 8.644241,0.754181 3.47972,-4.99e-4 2.87928,0.266253 8.36556,-0.551002 2.9704,-0.286277 2.25956,-1.832121 0.20145,-1.884675"
         id="path1-7-8"
         sodipodi:nodetypes="ccccc" /><path
         style="fill:none;stroke:#000000;stroke-width:0.687264;stroke-linecap:butt;stroke-linejoin:bevel;stroke-dasharray:1.37452, 0.687264;stroke-dashoffset:0;stroke-opacity:1"
         d="m 43.10833,44.880574 c -4.501888,0.224358 -8.829368,0.352067 0.863519,1.450973 5.545702,0.737645 12.666529,1.010727 16.893904,0.969545 5.385165,-5.06e-4 6.568672,-0.08802 13.825377,-0.694278 13.184972,-2.373199 5.1128,-1.89917 1.923391,-1.946294"
         id="path1-7-43-67"
         sodipodi:nodetypes="ccccc" /><path
         style="fill:none;stroke:#000000;stroke-width:0.572082;stroke-linecap:butt;stroke-linejoin:bevel;stroke-dasharray:1.14417, 0.572082;stroke-dashoffset:0;stroke-opacity:1"
         d="m 5.6642708,41.346397 c -3.0920736,0.22634 -6.06435675,0.35518 0.5930974,1.463777 3.8090048,0.744147 8.6998668,1.019643 11.6033948,0.978087 3.69874,-5.11e-4 4.51162,-0.08879 9.495814,-0.700396 9.055945,-2.394131 3.511663,-1.915925 1.321051,-1.963461"
         id="path1-7-43-5"
         sodipodi:nodetypes="ccccc" /><path
         style="fill:none;stroke:#000000;stroke-width:0.503609;stroke-linecap:butt;stroke-linejoin:bevel;stroke-dasharray:1.00722, 0.503609;stroke-dashoffset:0;stroke-opacity:1"
         d="m 9.115396,52.912255 c -2.3545778,0.23034 -4.617936,0.361455 0.4516362,1.489643 2.9005128,0.757296 6.6248458,1.037661 8.8358478,0.995372 2.816546,-5.21e-4 3.435545,-0.09036 7.23095,-0.712774 6.895994,-2.436437 2.67409,-1.949781 1.005965,-1.998158"
         id="path1-7-43-5-5"
         sodipodi:nodetypes="ccccc" /><path
         style="fill:none;stroke:#000000;stroke-width:0.555175;stroke-linecap:butt;stroke-linejoin:bevel;stroke-dasharray:1.11035, 0.555175;stroke-dashoffset:0;stroke-opacity:1"
         d="m 7.1851597,64.838007 c -2.8949445,0.227676 -5.6777355,0.357278 0.5552862,1.472405 3.5661691,0.748541 8.1452241,1.025658 10.8636421,0.983862 3.462936,-5.16e-4 4.223993,-0.08932 8.890428,-0.704535 8.478602,-2.408244 3.287785,-1.927204 1.236831,-1.975018"
         id="path1-7-43-9"
         sodipodi:nodetypes="ccccc" /><path
         style="fill:none;stroke:#000000;stroke-width:0.5253;stroke-linecap:butt;stroke-linejoin:bevel;stroke-dasharray:1.05059, 0.5253;stroke-dashoffset:0;stroke-opacity:1"
         d="m 48.455904,58.841951 c -2.580231,0.228699 -5.060499,0.358868 0.49492,1.478991 3.178485,0.75188 7.259743,1.030228 9.682637,0.988255 3.086474,-5.13e-4 3.764793,-0.08971 7.923926,-0.707677 7.556885,-2.419011 2.930366,-1.935831 1.102376,-1.983856"
         id="path1-7-43-57"
         sodipodi:nodetypes="ccccc" /><path
         style="fill:none;stroke:#000000;stroke-width:0.5253;stroke-linecap:butt;stroke-linejoin:bevel;stroke-dasharray:1.05059, 0.5253;stroke-dashoffset:0;stroke-opacity:1"
         d="m 48.89548,68.697996 c -2.580231,0.228699 -5.060499,0.358868 0.49492,1.478991 3.178485,0.75188 7.259743,1.030228 9.682637,0.988255 3.086474,-5.13e-4 3.764793,-0.08971 7.923926,-0.707677 7.556885,-2.419011 2.930366,-1.935831 1.102376,-1.983856"
         id="path1-7-43-57-9"
         sodipodi:nodetypes="ccccc" /><path
         style="fill:none;stroke:#000000;stroke-width:0.54558;stroke-linecap:butt;stroke-linejoin:bevel;stroke-dasharray:1.09116, 0.54558;stroke-dashoffset:0;stroke-opacity:1"
         d="m 180.36159,58.49832 c -2.80405,0.227001 -5.49948,0.356224 0.53786,1.468048 3.4542,0.746317 7.88948,1.02262 10.52258,0.980942 3.35421,-5.13e-4 4.09138,-0.08914 8.61129,-0.702438 8.21242,-2.401125 3.18456,-1.921516 1.19799,-1.969188"
         id="path1-7-43-38"
         sodipodi:nodetypes="ccccc" /><path
         style="fill:none;stroke:#000000;stroke-width:0.553919;stroke-linecap:butt;stroke-linejoin:bevel;stroke-dasharray:1.10784, 0.553919;stroke-dashoffset:0;stroke-opacity:1"
         d="m 180.22365,70.681586 c -2.88708,0.227258 -5.66229,0.356615 0.55377,1.469748 3.55647,0.747179 8.12307,1.023802 10.8341,0.982082 3.45351,-5.12e-4 4.21249,-0.08915 8.86623,-0.703252 8.45554,-2.403894 3.27885,-1.923744 1.23347,-1.971483"
         id="path1-7-43-56"
         sodipodi:nodetypes="ccccc" /><path
         style="fill:#b2b2b2;fill-opacity:0.68;stroke:none;stroke-width:8.93249;stroke-opacity:0"
         d="m 134.70387,41.64396 26.11076,-0.977344 -4.82869,34.940112 -16.45338,0.244337 z"
         id="path1" /><path
         style="fill:none;stroke:#000000;stroke-width:0.632833;stroke-linecap:butt;stroke-linejoin:bevel;stroke-dasharray:1.26567, 0.632833;stroke-dashoffset:0;stroke-opacity:1"
         d="m 133.67154,46.765461 c -3.84425,0.222772 -7.53958,0.349575 0.73737,1.440702 4.73558,0.732418 10.81619,1.00357 14.42604,0.962674 4.59849,-5.02e-4 5.60911,-0.08739 11.80577,-0.689358 11.25889,-2.356396 4.3659,-1.885725 1.64241,-1.932512"
         id="path1-7-43"
         sodipodi:nodetypes="ccccc" /><path
         style="fill:none;stroke:#000000;stroke-width:0.654827;stroke-linecap:butt;stroke-linejoin:bevel;stroke-dasharray:1.30965, 0.654827;stroke-dashoffset:0;stroke-opacity:1"
         d="m 140.67562,57.988884 c -1.90815,0.54181 -4.32493,1.614515 2.70904,2.0416 7.8862,0.385433 8.21646,0.0075 14.464,-0.451627 2.9837,-1.199312 -1.15411,-1.505477 -1.4164,-1.6491"
         id="path1-7-4-8"
         sodipodi:nodetypes="cccc" /><path
         style="fill:none;stroke:#000000;stroke-width:0.553282;stroke-linecap:butt;stroke-linejoin:bevel;stroke-dasharray:1.10657, 0.553282;stroke-dashoffset:0;stroke-opacity:1"
         d="m 139.22925,67.772385 c -0.57445,0.13616 -4.63923,0.772896 1.22167,1.566689 4.45924,0.699573 7.6918,0.339072 8.53726,0.389405 3.46345,-5.02e-4 2.86583,0.266634 8.32648,-0.551794 2.95654,-0.286684 1.84923,-2.566444 -0.2659,-1.887364"
         id="path1-7-8-4"
         sodipodi:nodetypes="ccccc" /></g></g></svg>
