<?xml version="1.0" encoding="UTF-8" standalone="no"?>
<!-- Created with Inkscape (http://www.inkscape.org/) -->

<svg
   width="210mm"
   height="297mm"
   viewBox="0 0 210 297"
   version="1.1"
   id="svg1"
   xml:space="preserve"
   sodipodi:docname="Corpos Masculinos - Oval.svg"
   inkscape:version="1.3 (0e150ed6c4, 2023-07-21)"
   xmlns:inkscape="http://www.inkscape.org/namespaces/inkscape"
   xmlns:sodipodi="http://sodipodi.sourceforge.net/DTD/sodipodi-0.dtd"
   xmlns="http://www.w3.org/2000/svg"
   xmlns:svg="http://www.w3.org/2000/svg"><sodipodi:namedview
     id="namedview1"
     pagecolor="#505050"
     bordercolor="#eeeeee"
     borderopacity="1"
     inkscape:showpageshadow="0"
     inkscape:pageopacity="0"
     inkscape:pagecheckerboard="0"
     inkscape:deskcolor="#505050"
     inkscape:document-units="mm"
     inkscape:zoom="0.40378396"
     inkscape:cx="123.82859"
     inkscape:cy="494.07609"
     inkscape:window-width="1600"
     inkscape:window-height="837"
     inkscape:window-x="-8"
     inkscape:window-y="-8"
     inkscape:window-maximized="1"
     inkscape:current-layer="layer1" /><defs
     id="defs1" /><g
     inkscape:label="Camada 1"
     inkscape:groupmode="layer"
     id="layer1"><g
       id="g3-6-4-0-7"
       style="fill:none;stroke:#ffffff"
       transform="translate(371.01601,25.166581)" /><g
       id="g3-6-4-7"
       style="fill:#ffffff;stroke:#ffffff"
       transform="translate(461.60529,26.72073)" /><g
       id="g3-6-4-4"
       style="fill:#ffffff;stroke:#b3b3b3"
       transform="matrix(5.3751887,0,0,5.3751887,1641.0251,-241.33343)"><path
         style="fill:#ffffff;stroke:#b3b3b3;stroke-width:0.264999;-inkscape-stroke:none"
         d="m -289.48477,48.294454 c -0.19704,-3.230422 6.43874,-4.763826 7.33442,-0.245737 0.64643,3.099294 -0.30412,8.543124 -5.26841,6.779233 -2.41413,-1.716462 -2.04863,-3.103597 -2.06601,-6.533496 z m 1.15301,5.731393 c 0.16345,1.353336 -0.23022,2.046076 -1.1424,2.05518 -9.94003,0.09921 -8.11839,12.456014 -8.78787,20.133256 l 0.33952,2.690652 0.12538,1.850898 c -0.18921,0.548467 -0.10707,2.353158 0.86003,3.728986 0.2199,0.296222 0.75917,0.464692 1.36102,0.608133 l 4e-5,-0.02895 c 0.32742,0.293873 0.70822,0.400374 0.95915,0.46479 0.58309,0.247848 0.54788,0.11626 0.49751,-0.295465 -0.22687,-0.877785 -0.21892,-1.52074 -0.72009,-2.672819 1.1312,2.09918 1.46943,1.070036 1.43533,0.534309 -0.33014,-1.234543 -0.44628,-2.440555 -1.88233,-3.822554 l -0.11588,-2.577314 c 1.12189,-3.871919 0.32303,-3.42505 1.25018,-7.353734 0.34226,-2.063761 0.49536,-1.789471 0.75296,-2.722117 0.79379,2.333229 1.33249,0.998396 0.23169,3.706713 -1.88747,2.812012 -1.22652,6.819288 -0.029,8.166339 -2.75491,8.042855 -1.01908,11.590976 -0.68467,17.299748 0.0851,1.453523 -0.51624,2.878021 -0.106,4.141653 l 4.97473,-0.11586 c -1.02436,-5.175611 3.01352,-6.859569 2.05456,-12.128646 -0.49484,-1.415094 0.96612,-3.170956 1.50998,0.959975 -0.0116,4.87595 1.21843,6.064966 1.34789,11.209911 l 5.75404,-0.14653 c -0.22221,-2.071193 -0.91738,-3.799852 -0.88804,-5.471598 0.0906,-5.162463 1.32047,-10.106334 0.74157,-15.956269 1.71773,-1.413424 1.19993,-5.673234 0.065,-8.479921 -0.33414,-2.123038 0.0151,-1.942194 0.4923,-3.446091 0.3025,2.581657 0.16309,1.175936 0.23168,3.619844 0.32933,1.983146 0.44043,2.112995 0.75292,4.17004 0.57912,3.085286 0.82015,3.092662 0.98459,5.62807 -0.0992,1.79593 -1.08901,2.91254 -1.46319,4.314694 -0.0729,0.687976 -0.11108,1.240486 0.0846,1.895653 0.6766,0.259977 0.64731,-1.041352 1.0131,-1.539437 0.58214,0.686696 -0.13677,2.026408 -0.58785,3.186264 0.20494,0.03563 0.4127,0.163485 0.59527,0.180215 1.58338,0.145035 2.36231,-0.445241 2.97065,-2.191635 0.25135,-0.52581 -0.0552,-2.609292 -0.40542,-3.586272 0.0473,-2.95034 0.10617,-5.305811 -0.12199,-8.669421 0.22092,-1.29349 -0.13173,-3.050309 -0.20273,-4.343799 -0.15937,-3.956717 0.32209,-10.59121 -5.39333,-12.139851 -2.82354,-0.11833 -3.82671,-1.6481 -3.11108,-3.798895 -0.77654,2.101517 -3.88545,3.067317 -5.74359,0.953871 m -6.24722,31.505408 c -0.79973,-0.946499 -1.2519,-1.932195 -1.5348,-2.80899 m 0.55022,2.374605 c -0.86265,-0.723966 -0.95316,-1.679602 -1.15834,-2.403568 m 22.12581,4.777017 c 0.44317,-0.785958 0.73702,-1.792101 0.67967,-2.539558 m -1.59471,2.845255 c 0.58433,-0.796513 1.07037,-1.711094 0.85754,-2.886209 m -1.67661,2.886209 c 0.77117,-0.844561 1.20982,-1.896521 0.9804,-3.050024"
         id="path5-5-0-5-8"
         sodipodi:nodetypes="cccccsccccccccccccccccsccccccsccccccccccsccccccccccccccccc" /></g><path
       style="fill:#000000;stroke:#000000;stroke-width:1.42441;-inkscape-stroke:none"
       d="m 63.541711,180.16097 c 14.785326,6.84703 27.375688,10.9671 41.072039,8.90961 3.27106,-0.49132 16.11927,-0.60665 22.43017,-2.3872 5.83186,-1.64395 12.73309,-4.27939 17.90697,-7.12944 2.56652,15.06216 4.32597,30.27421 1.24527,44.20691 0.83994,6.982 0.95696,11.79527 1.24526,17.12245 -15.97263,3.29919 -30.23354,2.14796 -43.273,-2.17921 l -0.31133,-11.83003 -3.29554,11.00289 c -14.676156,4.26388 -29.695593,1.46333 -44.958449,-1.66339 0.158659,-23.49594 3.791747,-38.73287 7.93861,-56.05259 z"
       id="path5-2"
       sodipodi:nodetypes="csscccccccc" /></g></svg>
