<?xml version="1.0" encoding="UTF-8" standalone="no"?>
<!-- Created with Inkscape (http://www.inkscape.org/) -->

<svg
   width="210mm"
   height="297mm"
   viewBox="0 0 210 297"
   version="1.1"
   id="svg1"
   xml:space="preserve"
   sodipodi:docname="Corpos Masculinos - Retângulo.svg"
   inkscape:version="1.3 (0e150ed6c4, 2023-07-21)"
   inkscape:export-filename="Corpos Masculinos - Retângulo.png"
   inkscape:export-xdpi="96"
   inkscape:export-ydpi="96"
   xmlns:inkscape="http://www.inkscape.org/namespaces/inkscape"
   xmlns:sodipodi="http://sodipodi.sourceforge.net/DTD/sodipodi-0.dtd"
   xmlns="http://www.w3.org/2000/svg"
   xmlns:svg="http://www.w3.org/2000/svg"><sodipodi:namedview
     id="namedview1"
     pagecolor="#505050"
     bordercolor="#eeeeee"
     borderopacity="1"
     inkscape:showpageshadow="0"
     inkscape:pageopacity="0"
     inkscape:pagecheckerboard="0"
     inkscape:deskcolor="#505050"
     inkscape:document-units="mm"
     inkscape:zoom="0.40378396"
     inkscape:cx="515.12695"
     inkscape:cy="575.80296"
     inkscape:window-width="1600"
     inkscape:window-height="837"
     inkscape:window-x="-8"
     inkscape:window-y="-8"
     inkscape:window-maximized="1"
     inkscape:current-layer="layer1" /><defs
     id="defs1" /><g
     inkscape:label="Camada 1"
     inkscape:groupmode="layer"
     id="layer1"><g
       id="g3-6-4-0-7"
       style="fill:none;stroke:#ffffff"
       transform="translate(371.01601,25.166581)" /><g
       id="g3-6-4-7"
       style="fill:#ffffff;stroke:#ffffff"
       transform="translate(461.60529,26.72073)" /><g
       id="g3-6-4-0-73-9"
       style="fill:#ffffff;stroke:#b3b3b3"
       transform="matrix(5.2982749,0,0,5.2982749,1755.7693,-236.23247)"><path
         style="fill:#ffffff;stroke:#b3b3b3;stroke-width:0.264999;-inkscape-stroke:none"
         d="m -315.56154,48.508307 c -0.10544,-3.81664 6.1418,-5.394252 6.97903,-0.05793 1.23948,7.248278 -7.57187,9.654643 -6.97903,0.05793 z m 4.60453,38.057341 c 0.60588,3.344142 0.0329,5.25153 0.94216,8.004907 0.45223,1.369413 0.19529,3.868772 0.51126,5.862025 l 5.59469,0.2706 c 0.18333,0.009 -0.30853,-3.638622 -1.41985,-7.39107 0.16507,-1.5792 0.48694,-6.264663 0.1984,-7.542267 -1.38284,-6.123176 -1.14178,-9.177416 -0.86419,-14.368625 0.0582,-1.087895 1.22093,-5.114756 0.38996,-7.764266 0.39384,1.600976 0.71832,4.307702 1.8536,5.908679 0.008,0.847398 -1.78274,1.026171 -2.14415,1.817416 -0.42722,0.935324 -0.27145,2.967984 -0.25955,4.001563 1.21099,-1.255773 4.06204,-2.350596 5.39026,-3.483357 0.80092,-0.683054 0.16826,-2.118558 0.0668,-2.963279 -0.25821,-2.150682 -1.01223,-3.710011 -1.06667,-5.468624 -0.0465,-1.501375 -0.0692,-1.308023 -0.71816,-3.227191 -0.39327,-1.061825 -2.08349,-1.998171 -3.67714,-2.218671 -2.42365,-0.306512 -4.0113,-1.789108 -3.99194,-4.046825 -1.0602,1.12978 -2.34811,1.137165 -3.83048,0.226908 0.0849,1.502851 -0.88937,2.949321 -4.17195,3.958511 -1.23031,0.0657 -2.86406,1.99142 -3.08322,2.930502 -0.73779,3.161362 -1.10038,5.567221 -1.52949,9.024207 0.77645,2.139883 2.99077,3.153479 4.35287,4.78415 0.0535,-0.571476 0.0443,-3.890092 -0.3555,-4.184469 -0.76503,-0.563353 -0.28865,-1.313266 -0.17476,-2.474279 0.19511,-1.988945 -0.88672,-4.437053 -0.41562,-5.930331 -0.71569,1.368111 1.07024,2.358149 0.97063,6.539571 -0.0159,0.669517 0.0469,0.426161 -0.0571,2.496534 -0.45991,2.202417 0.39712,3.321972 0.29502,5.547213 -0.23614,3.947127 -0.31035,12.100212 2.2015,16.846521 0.78866,1.490232 0.5003,4.824146 0.2607,6.732859 l 5.06025,0.0119 c 0.28496,-1.277373 0.87159,-3.25374 0.11941,-5.199601 -0.31468,-0.814057 -0.20086,-1.461817 -0.28423,-2.036364 -0.47671,-3.285326 -1.50678,-6.623823 -2.1702,-9.237429 l 1.89525,0.260343 z"
         id="path5-5-0-5-6-0-3"
         sodipodi:nodetypes="ccccscscssccscssscccccsccsscsccsccssccc" /></g><path
       style="fill:#000000;stroke:#000000;stroke-width:1.40403;-inkscape-stroke:none"
       d="m 72.975062,164.5373 c 22.683274,11.13847 43.422488,3.05685 61.235878,0.12717 1.84697,10.47475 1.90039,19.52483 2.01186,29.47266 l 4.46687,27.99095 c -4.23688,0.81084 -7.47634,2.03824 -15.8553,0.77805 -3.59239,-0.51075 -6.85561,-1.28542 -13.23604,0.43393 -3.60363,0.62964 -5.75109,2.20784 -7.70616,0.0895 -1.16498,-3.22437 1.44813,-9.86259 -2.56659,-15.92969 l 0.65099,16.64867 c -9.565052,1.24392 -21.8446,3.59789 -30.879912,0.0747 -1.119843,-18.58168 -2.907398,-40.20087 -1.137616,-60.51642 z"
       id="path6-5"
       sodipodi:nodetypes="cccccccccccc" /></g></svg>
