<?xml version="1.0" encoding="UTF-8" standalone="no"?>
<!-- Created with Inkscape (http://www.inkscape.org/) -->

<svg
   width="210mm"
   height="297mm"
   viewBox="0 0 210 297"
   version="1.1"
   id="svg1"
   xml:space="preserve"
   sodipodi:docname="Corpos Masculinos - Trapézio.svg"
   inkscape:version="1.3 (0e150ed6c4, 2023-07-21)"
   xmlns:inkscape="http://www.inkscape.org/namespaces/inkscape"
   xmlns:sodipodi="http://sodipodi.sourceforge.net/DTD/sodipodi-0.dtd"
   xmlns="http://www.w3.org/2000/svg"
   xmlns:svg="http://www.w3.org/2000/svg"><sodipodi:namedview
     id="namedview1"
     pagecolor="#505050"
     bordercolor="#eeeeee"
     borderopacity="1"
     inkscape:showpageshadow="0"
     inkscape:pageopacity="0"
     inkscape:pagecheckerboard="0"
     inkscape:deskcolor="#505050"
     inkscape:document-units="mm"
     inkscape:zoom="0.40378396"
     inkscape:cx="349.19664"
     inkscape:cy="575.80296"
     inkscape:window-width="1600"
     inkscape:window-height="837"
     inkscape:window-x="-8"
     inkscape:window-y="-8"
     inkscape:window-maximized="1"
     inkscape:current-layer="layer1" /><defs
     id="defs1" /><g
     inkscape:label="Camada 1"
     inkscape:groupmode="layer"
     id="layer1"><g
       id="g3-6-4-0-7"
       style="fill:none;stroke:#ffffff"
       transform="translate(371.01601,25.166581)" /><g
       id="g3-6-4-7"
       style="fill:#ffffff;stroke:#ffffff"
       transform="translate(461.60529,26.72073)" /><path
       style="fill:#ffffff;stroke:#b3b3b3;stroke-width:1.35661;-inkscape-stroke:none"
       d="m 123.15683,16.236983 c -1.77931,-21.9970144 -38.486015,-16.78495348 -35.945358,1.266618 -0.178664,19.571285 3.936997,22.439884 7.88198,30.201357 5.612188,11.041559 13.966518,13.753815 21.079018,1.372893 7.89544,-12.012436 8.58624,-26.462836 6.98436,-32.840868 z m 0.37832,48.743613 c 7.10784,4.719277 7.01599,5.689537 12.28637,5.989529 3.14765,0.179175 7.03796,1.519919 9.8395,2.463764 9.85516,3.320173 11.93436,19.33375 12.50117,31.479901 0.59917,12.8392 -4.26627,20.25865 -2.44257,24.72719 3.7202,9.11557 4.06421,35.68115 0.39674,46.26495 -1.65583,3.29985 -0.30562,8.54293 -1.58984,13.32942 2.55074,6.10728 5.5722,11.94553 2.77076,21.11118 -2.605,3.17903 -2.71936,4.6131 -5.2247,5.58895 -2.76909,1.07852 -5.0119,2.13284 -6.22548,2.50799 -2.31125,1.47185 -2.87745,-5.21918 -2.45245,-7.04964 -1.86809,-2.82043 4.49925,-3.14842 4.12621,-4.0404 -0.29744,-0.71087 3.5811,6.68166 5.48784,2.29928 1.0001,-2.29867 0.55139,-5.96189 0.65209,-10.75181 -2.18282,-0.48685 2.32037,19.64316 -6.1062,8.5224 2.11939,-7.98195 -2.42056,-12.10315 -0.2964,-19.42046 l -3.40956,-16.01077 c -0.84023,-20.06463 -4.61413,-25.47466 -2.99039,-37.20123 -0.0783,-9.94153 -0.70114,-27.21619 -1.28715,-32.10947 -1.0582,6.25727 -2.68163,25.56338 -3.87299,32.75552 -3.01272,18.18724 0.11825,13.05667 0.41619,31.22732 1.48445,16.58463 1.33957,28.36 4.662,40.48547 4.96694,18.12754 1.07095,33.7051 0.62199,51.19023 0.85323,4.22588 2.6502,13.32753 0.58037,21.94914 -1.31198,5.4647 2.34454,11.24982 2.38073,14.34909 l -21.73547,0.0973 c 1.59604,-8.40098 1.98936,-11.54417 1.06841,-16.87731 -1.70249,-9.85894 -12.83937,-28.00026 -15.95758,-51.36289 1.13259,-3.26551 -2.02755,-13.17709 -1.63131,-19.02373 0.21501,-3.17571 -2.81879,-0.90826 -2.74467,-0.0711 0.3087,3.48394 0.0998,9.43272 -0.0927,18.37552 -0.36039,16.77032 3.30241,25.29783 -2.07367,43.77886 -1.265387,4.34993 6.83278,20.91127 6.24114,24.65025 l -25.280222,0.95127 c 1.137559,-10.6031 -0.02048,-22.85793 -0.17252,-31.41606 -6.300271,-39.42992 -19.346856,-56.88734 -4.873881,-100.42474 2.246298,-6.75732 0.173545,-15.22725 0.583447,-24.65034 -1.528367,-10.03941 -1.168787,-27.61673 -6.807541,-33.91521 -0.556418,11.11396 0.861168,21.4189 -1.395726,29.95722 -0.746036,12.19218 0.514489,22.08517 -4.181239,40.49535 -0.790779,3.30451 -0.807416,9.29199 -2.020997,12.10274 -1.761039,4.0787 -0.02048,8.28825 -1.627886,12.48806 -1.124352,2.93444 -1.159061,5.91649 -0.56128,9.0325 l 5.330419,4.23228 c 0.63981,2.80307 -0.158187,2.92194 -1.055651,2.80947 1.154095,1.49662 0.832552,2.08457 -0.245214,2.18696 -0.67841,0.59814 0.04607,3.34214 -1.937552,1.72756 -8.69554,-6.74185 -9.804431,-13.98377 -7.175722,-19.89933 0.360911,1.40367 -1.522173,5.20443 -1.201602,7.1275 0.298455,1.78863 0.05222,3.72562 0.966523,4.72015 4.945398,5.37839 5.931271,6.4199 6.737255,8.01994 0.482749,0.95859 -4.177963,-0.0957 -9.761122,-7.66696 -1.499955,-1.6861 -1.425981,-5.19476 -1.448199,-8.74602 -0.03072,-4.54542 2.196436,-8.67046 2.834249,-13.92783 1.001796,-8.25757 -0.245215,-18.51332 -2.133416,-28.55805 -1.913749,-10.18015 1.706108,-22.47 3.029395,-29.44207 1.228326,-6.47182 -4.442322,-36.695801 3.649805,-48.771306 2.419074,-3.609874 3.155639,-5.635734 10.161553,-8.632111 5.935316,-2.538507 14.039474,-7.817631 20.565914,-10.781397 5.227112,-2.373718 6.988305,-10.694063 5.934242,-15.269642 3.32524,8.161904 12.642058,15.109202 20.976428,1.197814 0.61918,0.73037 0.87627,11.621269 7.21217,15.828002 z M 64.659832,218.22708 c -1.400129,-1.30231 -4.527457,-4.70658 -7.023372,-6.07999 m 7.442695,3.45931 c -0.481215,-1.51813 -3.725776,-3.65758 -5.451031,-4.92686 m 1.991714,-10.90206 c -0.499131,4.30415 0.431046,9.61327 -2.830307,12.15998 -3.294627,0.44639 -1.919071,-7.99902 -2.725515,-12.15998 m 91.944404,17.64842 c 0.14948,-2.76714 1.87637,-5.33713 5.18866,-7.70889 m -8.89488,8.74663 c 1.29876,-3.25127 3.39711,-6.72732 5.48518,-8.00541 m -6.81942,5.33692 c 1.45951,-2.49376 3.34879,-4.55782 5.18871,-6.67116"
       id="path5-5-0-5-7-6-8"
       sodipodi:nodetypes="ccscccsssscccsccssccccccscscsccscsssscccsccccssccccccssscsssssssccscccccccccccccc" /><path
       style="fill:#000000;stroke:#000000;stroke-width:1.35661;-inkscape-stroke:none"
       d="m 76.893867,162.30149 c 8.422732,3.58766 15.968989,6.18269 24.948863,5.8703 14.62456,-2.20447 19.50857,-2.78551 28.09369,-3.98342 5.06232,-0.47046 5.74713,-1.35304 6.91862,-2.93515 2.10706,19.00176 2.42231,24.53383 3.35443,38.57638 0.99811,6.82806 3.66061,17.71231 3.56416,21.80406 -11.45591,6.74852 -18.20182,7.02998 -35.85091,6.91863 0.11006,-3.99536 -1.37044,-23.15853 -3.35442,-21.3848 -0.37986,2.1926 -1.12144,20.70706 0,23.90062 -11.81254,1.04031 -19.387414,-3.40181 -32.286819,-6.70893 -2.037788,-18.08777 -4.202075,-42.41237 4.612386,-62.05769 z"
       id="path7-9-7"
       sodipodi:nodetypes="ccccccccccc" /></g></svg>
