<?xml version="1.0" encoding="UTF-8" standalone="no"?>
<!-- Created with Inkscape (http://www.inkscape.org/) -->

<svg
   width="210mm"
   height="297mm"
   viewBox="0 0 210 297"
   version="1.1"
   id="svg1"
   xml:space="preserve"
   sodipodi:docname="Corpos Masculinos - Triângulo Invertido.svg"
   inkscape:version="1.3 (0e150ed6c4, 2023-07-21)"
   inkscape:export-filename="Corpos Masculinos - Triângulo Invertido.png"
   inkscape:export-xdpi="96"
   inkscape:export-ydpi="96"
   xmlns:inkscape="http://www.inkscape.org/namespaces/inkscape"
   xmlns:sodipodi="http://sodipodi.sourceforge.net/DTD/sodipodi-0.dtd"
   xmlns="http://www.w3.org/2000/svg"
   xmlns:svg="http://www.w3.org/2000/svg"><sodipodi:namedview
     id="namedview1"
     pagecolor="#505050"
     bordercolor="#eeeeee"
     borderopacity="1"
     inkscape:showpageshadow="0"
     inkscape:pageopacity="0"
     inkscape:pagecheckerboard="0"
     inkscape:deskcolor="#505050"
     inkscape:document-units="mm"
     inkscape:zoom="0.28551838"
     inkscape:cx="364.24976"
     inkscape:cy="411.53218"
     inkscape:window-width="1600"
     inkscape:window-height="837"
     inkscape:window-x="-8"
     inkscape:window-y="-8"
     inkscape:window-maximized="1"
     inkscape:current-layer="layer1" /><defs
     id="defs1" /><g
     inkscape:label="Camada 1"
     inkscape:groupmode="layer"
     id="layer1"><g
       id="g3-6-4-0-7"
       style="fill:none;stroke:#ffffff"
       transform="translate(371.01601,25.166581)" /><g
       id="g3-6-4-7"
       style="fill:#ffffff;stroke:#ffffff"
       transform="translate(461.60529,26.72073)" /><path
       style="fill:#ffffff;stroke:#b3b3b3;stroke-width:1.39678;-inkscape-stroke:none"
       d="M 82.978482,22.613478 C 81.488236,4.5118105 116.51163,-8.4208363 118.88997,20.275936 c 1.56841,21.62975 2.35278,39.14677 -27.76926,35.73275 C 79.078589,51.056562 83.109514,40.928724 82.978482,22.613478 Z m 3.787832,30.846408 C 86.665103,55.006 88.05089,56.5907 80.744837,59.408106 69.315606,63.815533 58.372305,68.308771 53.862253,71.375227 44.061,78.039341 41.670116,89.661535 39.492598,104.33991 c -1.570045,10.58329 -13.519773,16.11416 -13.054194,25.00155 0.643631,12.28643 5.498981,29.86912 9.05484,38.17149 1.704876,3.39763 2.909594,8.79599 4.231801,13.72423 l 0.512859,5.81561 c 0.379506,3.59813 2.917448,6.65894 5.411431,6.23184 2.292582,-0.39268 4.496558,1.37555 5.854977,3.96225 1.159073,1.56141 1.574684,4.54484 5.016692,5.27401 0.327323,-1.19686 1.10979,-1.7462 0.0954,-3.85413 -1.712201,-3.23934 -2.253207,-4.23138 -3.237971,-6.20608 l 4.802957,-0.2161 c 1.790421,1.2045 3.549745,2.42624 4.073041,4.33469 2.148896,1.37744 3.536779,0.18343 4.418391,-0.0748 1.494987,-0.25407 1.479491,-1.62402 1.30397,-2.9846 -1.234868,-5.07963 -5.823088,-7.0217 -9.196417,-9.96276 3.119956,-0.37687 7.586312,1.34171 12.392537,0.99024 -1.887091,-8.36587 -14.689862,-1.04653 -20.911536,-6.56349 l -0.915926,-9.3109 c 0.358949,-21.02427 -2.412758,-29.64285 1.552546,-37.38712 3.737759,-10.60165 7.546464,-12.52121 8.090001,-17.5534 1.792003,6.41945 2.65933,11.25324 2.901265,15.22718 0.800652,13.15097 4.146834,16.74173 8.088578,36.36463 -14.703778,42.21022 -4.150367,70.86377 -2.387722,100.95418 0.448554,7.66141 -0.125974,21.88586 2.036152,28.54639 l 24.38966,-2.1e-4 c -1.64332,-8.64978 -1.73366,-15.74558 -0.25828,-21.11905 3.1548,-11.4909 8.31254,-23.65769 4.19733,-46.20495 -2.6082,-7.4588 0.65692,-15.79812 5.79135,5.55491 4.51781,18.78841 7.98417,31.71832 14.2459,48.43342 1.27366,3.39996 2.37787,9.0947 3.29052,13.24775 l 23.15499,-0.0111 c -1.17124,-10.91711 -5.90368,-18.65495 -5.74924,-27.46655 10.85865,-85.31164 -22.14208,-97.60545 -1.8542,-131.85366 2.44185,-9.98947 7.32092,-15.02182 8.73611,-23.26299 6.2601,12.5805 7.5394,7.16011 9.8557,15.94982 -12.0786,23.47241 -10.57033,31.31531 -14.81151,42.81074 -1.7443,10.0047 -21.45134,6.24807 -27.28349,14.10674 -0.52788,0.71131 -0.8202,1.51117 -0.0264,2.41465 1.95771,1.00643 9.03628,-4.21662 10.27905,-4.66749 0.77978,-0.28304 -2.9797,0.98049 -7.41231,7.11873 -0.88915,2.86896 -2.22396,7.51384 0.7697,9.5601 1.85937,1.27093 1.91519,-4.13244 2.33317,-6.79435 0.38161,-2.42995 4.36115,-5.05822 5.27334,-5.42129 -3.02123,3.3913 -4.09297,7.2289 -1.1557,12.80104 1.77987,2.28657 2.89082,1.17357 3.78519,1.05781 -0.0316,-1.71262 -4.64831,-5.86846 1.73508,-12.19952 -3.60225,2.31067 -4.39667,9.6979 -1.69844,12.07677 0.69849,0.61585 2.83263,1.60779 3.61388,0.59149 0.44434,-0.5779 1.76292,-2.22005 0.67906,-2.84254 -2.9448,-1.69123 -1.77883,-4.19253 -0.73134,-6.53387 4.77676,-2.05476 5.74672,-5.71968 9.49122,-5.06809 4.77575,0.83106 7.48427,-4.34886 10.46096,-10.18007 9.1396,-6.70216 26.00908,-37.89656 31.33233,-48.03173 4.3211,-8.22714 -1.53584,-15.5302 -5.27776,-23.19051 -4.1686,-8.53371 -7.80785,-20.822146 -13.25585,-30.787958 -2.22201,-4.064555 -6.8611,-6.513629 -10.89424,-9.535336 -2.86648,-2.147683 -12.26424,-2.074365 -15.56646,-4.211877 -3.34139,-2.162811 -6.82504,-4.199701 -10.94989,-5.317397 -5.67751,-0.15022 -11.22756,-0.471218 -9.22425,-8.423121 -1.31893,7.752557 -23.31965,14.313677 -31.647634,4.417231 M 66.691484,196.48782 c -2.379551,-6.7998 -7.025118,-8.68504 -12.447933,-9.27269"
       id="path5-5-0-5-7-0"
       sodipodi:nodetypes="cccccsssscccsccccccccccccccsccccscsscccccccscscssccccssscscsssssccccs" /><path
       style="fill:#000000;stroke:#000000;stroke-width:1.39678;-inkscape-stroke:none"
       d="m 69.257429,167.11953 c 8.672172,3.69391 15.06815,6.21314 24.313959,5.89151 15.057582,-2.26977 20.086242,-2.86801 28.925612,-4.10141 5.21224,-0.4844 7.42834,-1.82484 8.63453,-3.45382 8.34596,12.73063 10.7281,27.2963 11.65661,42.30922 1.02768,7.03029 0.96279,11.32923 0.86348,15.54217 -11.79518,6.94837 -23.70575,4.64778 -41.87752,4.53313 0.10961,-4.07841 -1.947377,-6.71266 -3.453688,-9.71385 -0.3911,2.25752 -1.802214,3.83532 -0.647577,7.12346 -12.162354,1.07111 -24.278798,2.32574 -37.560221,-1.07931 -0.786999,-18.95124 1.05065,-37.0693 9.144815,-57.0511 z"
       id="path7-6"
       sodipodi:nodetypes="ccccccccccc" /></g></svg>
