<?xml version="1.0" encoding="UTF-8" standalone="no"?>
<!-- Created with Inkscape (http://www.inkscape.org/) -->

<svg
   width="210mm"
   height="297mm"
   viewBox="0 0 210 297"
   version="1.1"
   id="svg1"
   xml:space="preserve"
   sodipodi:docname="Corpos Masculinos - Triângulo.svg"
   inkscape:version="1.3 (0e150ed6c4, 2023-07-21)"
   inkscape:export-filename="Corpos Masculinos - Triângulo.png"
   inkscape:export-xdpi="96"
   inkscape:export-ydpi="96"
   xmlns:inkscape="http://www.inkscape.org/namespaces/inkscape"
   xmlns:sodipodi="http://sodipodi.sourceforge.net/DTD/sodipodi-0.dtd"
   xmlns="http://www.w3.org/2000/svg"
   xmlns:svg="http://www.w3.org/2000/svg"><sodipodi:namedview
     id="namedview1"
     pagecolor="#505050"
     bordercolor="#eeeeee"
     borderopacity="1"
     inkscape:showpageshadow="0"
     inkscape:pageopacity="0"
     inkscape:pagecheckerboard="0"
     inkscape:deskcolor="#505050"
     inkscape:document-units="mm"
     inkscape:zoom="0.28551838"
     inkscape:cx="371.25456"
     inkscape:cy="527.11143"
     inkscape:window-width="1600"
     inkscape:window-height="837"
     inkscape:window-x="-8"
     inkscape:window-y="-8"
     inkscape:window-maximized="1"
     inkscape:current-layer="layer1" /><defs
     id="defs1" /><g
     inkscape:label="Camada 1"
     inkscape:groupmode="layer"
     id="layer1"><g
       id="g3-6-4-0-7"
       style="fill:none;stroke:#ffffff"
       transform="translate(371.01601,25.166581)" /><g
       id="g3-6-4-7"
       style="fill:#ffffff;stroke:#ffffff"
       transform="translate(461.60529,26.72073)" /><g
       id="g3-6-4-0-6"
       style="fill:#ffffff;stroke:#b3b3b3"
       transform="matrix(5.2687661,0,0,5.2687661,1750.1502,-233.73839)"><path
         style="fill:#ffffff;stroke:#b3b3b3;stroke-width:0.264999;-inkscape-stroke:none"
         d="m -316.0828,48.276638 c -0.10544,-3.81664 6.72098,-5.162583 7.55821,0.173737 1.23948,7.248278 -8.15105,9.422974 -7.55821,-0.173737 z m 4.43078,35.53588 c 0.3123,3.050558 0.3011,7.42576 0.94216,11.626797 0.25797,1.690528 0.007,3.08145 -0.32853,4.993265 l 4.52321,0.01 c 0.3473,7.5e-4 -0.13998,-5.136655 0.78105,-10.837159 0.16507,-1.5792 0.0246,-3.053458 0.43007,-4.298896 1.78103,-5.470049 0.48046,-10.546717 -0.92211,-16.974905 -0.3515,-1.610949 -0.045,-3.443697 -0.18922,-5.224636 0.41116,1.784381 1.29567,3.397987 1.40723,5.382103 0.10418,0.924889 -0.39424,2.246276 -0.30767,3.373206 0.0932,1.213321 0.56985,2.521489 0.55193,3.652099 1.21099,-1.255773 2.77401,-2.481168 3.24661,-3.980623 0.31642,-1.003946 -0.24128,-1.954743 -0.3427,-2.799464 -0.25821,-2.150682 -1.09413,-3.832872 -1.14857,-5.591485 -0.0465,-1.501375 -0.85191,-2.912745 -1.5009,-4.831913 -0.39327,-1.061825 -0.86723,-1.998171 -2.46088,-2.218671 -2.42365,-0.306512 -3.14253,-0.109505 -3.12317,-2.367222 -1.0602,1.12978 -2.81145,1.310916 -4.29382,0.400659 -0.22885,1.65972 -1.07785,1.624586 -3.76653,2.336827 -1.23031,0.0657 -2.63025,0.540598 -2.83664,1.482569 -0.47748,2.179177 -1.4986,4.764371 -1.50237,7.568374 -0.002,1.138985 -0.34026,2.248631 -0.45312,3.336089 -0.18803,1.033399 -0.15934,1.885642 0.0485,2.443132 0.26265,0.704572 0.38559,1.437819 0.68819,2.056769 0.52959,1.083236 1.50307,1.904221 2.34906,2.441449 0.0535,-0.571476 0.25172,-3.351741 0.16982,-3.841436 -0.10631,-0.632666 -0.4773,-0.354749 -0.23672,-2.386301 0.51843,-4.384066 1.77754,-8.303869 2.12293,-8.950365 -0.28986,1.228194 -0.22811,5.659828 -1.57895,8.912475 -0.29702,0.715208 -0.42725,2.221049 -0.26479,4.466929 -0.45991,2.202417 -0.89111,4.364483 -0.99318,6.589724 0.11547,4.064333 0.7547,8.704879 1.85399,13.255648 0.3738,1.547413 -0.85124,4.413864 -0.14472,6.559104 l 4.59691,0.0409 c -0.8758,-4.938979 1.59782,-11.715612 1.71915,-16.820896 z"
         id="path5-5-0-5-6-8"
         sodipodi:nodetypes="ccccscscssccscssscccccsscsscsscsccscccc" /></g><path
       style="fill:#000000;stroke:#000000;stroke-width:1.39622;-inkscape-stroke:none"
       d="m 65.891108,155.92902 c 10.183239,2.00029 13.659297,2.61711 20.53756,4.00305 32.248742,6.49803 40.661902,-3.9648 56.786122,-5.65522 4.61516,19.2499 2.63433,41.11439 1.00485,60.24149 -4.9736,2.53748 -19.42369,3.14139 -30.13608,5.97667 -4.3835,-0.89817 -5.59704,0.17493 -6.10307,-1.83095 l 0.30517,-10.37515 -4.59262,-1.09421 c -0.13077,4.84584 1.63944,7.69276 -0.77373,11.39534 -13.833966,2.30635 -31.597996,-4.37787 -45.288986,-1.4517 1.310786,-20.72786 3.883514,-41.24813 8.260815,-61.20932 z"
       id="path4-5"
       sodipodi:nodetypes="cscccccccccc" /></g></svg>
